<svg width="21" height="20" viewBox="0 0 21 20" fill="none" xmlns="http://www.w3.org/2000/svg">
<path d="M0.435545 18.1469C0.236633 18.1469 0.0458679 18.2245 -0.0947838 18.3626C-0.235437 18.5007 -0.314455 18.688 -0.314455 18.8833C-0.314455 19.0786 -0.235437 19.2659 -0.0947838 19.404C0.0458679 19.5421 0.236633 19.6196 0.435545 19.6196H19.4355C19.6345 19.6196 19.8252 19.5421 19.9659 19.404C20.1065 19.2659 20.1855 19.0786 20.1855 18.8833C20.1855 18.688 20.1065 18.5007 19.9659 18.3626C19.8252 18.2245 19.6345 18.1469 19.4355 18.1469H0.435545ZM0.444046 4.79174L12.3465 16.4783L16.9865 16.9437L16.512 12.3881L6.16255 2.22625V2.22575L4.60955 0.701482C3.91154 0.0161728 2.69455 0.0161728 1.99655 0.701482L0.444046 2.22625C0.271894 2.39429 0.135397 2.59419 0.042448 2.81437C-0.050499 3.03455 -0.0980511 3.27065 -0.0974541 3.50899C-0.0974541 3.99352 0.0950451 4.44908 0.444046 4.79174ZM15.307 15.2947L13.03 15.0665L3.58805 5.79564L5.63205 3.78832L15.0745 13.0586L15.307 15.2947ZM3.30305 1.64305C3.34876 1.6429 3.39405 1.65168 3.43628 1.66887C3.47852 1.68607 3.51684 1.71133 3.54905 1.74319L4.57155 2.74661L2.52705 4.75443L1.50504 3.75052C1.43983 3.68645 1.40319 3.59957 1.40319 3.50899C1.40319 3.41841 1.43983 3.33153 1.50504 3.26746L3.05705 1.74319C3.08928 1.71137 3.12761 1.68614 3.16984 1.66895C3.21206 1.65176 3.25734 1.64296 3.30305 1.64305Z" fill="white"/>
</svg>
