<svg width="746" height="396" viewBox="0 0 746 396" fill="none" xmlns="http://www.w3.org/2000/svg">
<path d="M74.2251 392.554V219.842C74.2251 182.488 104.42 152.209 141.67 152.209H194.49" stroke="#2E186A" stroke-width="6" stroke-miterlimit="10" stroke-linecap="round" stroke-linejoin="round"/>
<path d="M271.921 241.432C271.921 241.432 277.715 258.777 278.564 267.167" stroke="#2E186A" stroke-width="8" stroke-miterlimit="10" stroke-linecap="round" stroke-linejoin="round"/>
<path d="M343.266 235.16C343.266 235.16 342.339 250.885 343.813 267.903" stroke="#2E186A" stroke-width="8" stroke-miterlimit="10" stroke-linecap="round" stroke-linejoin="round"/>
<path d="M397.81 180.087C399.85 182.17 400.612 210.982 418.858 210.655" stroke="#2E186A" stroke-width="6" stroke-miterlimit="10" stroke-linecap="round" stroke-linejoin="round"/>
<path d="M200.507 188.96C192.511 192.491 181.001 199.339 171.693 213.533C184.765 208.168 229.746 248.364 261.631 239.243C246.821 237.672 215.053 214.386 200.507 188.96Z" fill="#2E186A"/>
<path d="M226.486 124.834C187.796 143.242 187.264 169.103 200.414 191.594C193.512 192.681 176.808 202.076 141.458 251.958C90.5651 323.761 93.0058 390.759 191.999 392.471" stroke="#2E186A" stroke-width="6" stroke-miterlimit="10" stroke-linecap="round" stroke-linejoin="round"/>
<path d="M381.165 284.579L381.15 284.297C497.78 295.374 494.416 244.608 482.189 193.583L451.593 92.3544C447.077 82.5115 443.041 86.7257 441.361 83.6528C437.432 76.4584 435.875 73.3026 435.875 73.3026C421.543 85.438 392.909 80.141 392.909 80.141C392.909 80.141 392.665 82.7602 392.465 90.7692C392.265 98.7782 383.337 97.6173 384.387 108.241L397.81 180.097L360.512 172.151C358.125 159.109 352.043 139.306 337.418 126.805" stroke="#2E186A" stroke-width="6" stroke-miterlimit="10" stroke-linecap="round" stroke-linejoin="round"/>
<path d="M386.612 392.208L386.007 350.49" stroke="#2E186A" stroke-width="6" stroke-miterlimit="10" stroke-linecap="round" stroke-linejoin="round"/>
<path d="M377.909 175.849C372.017 173.425 364.168 172.503 359.023 171.674C360.165 177.741 360.448 182.975 360.297 186.531C359.189 212.226 349.124 222.254 346.732 231.716C377.655 220.327 380.067 190.199 377.909 175.849Z" fill="#2E186A"/>
<path d="M331.561 326.044C330.912 331.482 329.662 333.76 316.946 340.296C313.7 341.964 306.861 345.583 297.694 350.173C299.593 373.634 300.648 390.886 300.648 390.886L338.776 391.418C338.776 391.418 337.721 352.207 336.896 312.372C334.758 316.64 331.952 322.737 331.561 326.044Z" fill="#FE7624"/>
<path d="M336.017 235.375C336.491 214.357 328.451 193.74 320.666 179.946C319.411 199.134 315.326 221.381 310.952 228.634C290.436 214.421 275.074 206.275 262.788 199.793C255.022 187.282 248.466 176.127 245.635 168.035C245.674 166.811 245.713 165.567 245.752 164.318C245.269 164.367 244.82 164.411 244.419 164.45C247.841 175.702 255.202 191.706 270.461 213.191C273.405 216.62 276.28 220.444 279.008 224.712L279.013 224.717C282.66 230.419 285.994 246.549 288.898 266.645C305.87 264.294 319.021 263.825 321.413 267.445L336.154 270.264C335.598 242.184 335.759 246.856 336.017 235.375Z" fill="#FE7624"/>
<path d="M355.65 306.495L332.967 311.133" stroke="#2E186A" stroke-width="6" stroke-miterlimit="10" stroke-linecap="round" stroke-linejoin="round"/>
<path d="M382.566 339.043C384.47 346.369 388.677 360.436 391.865 360.24C396.356 359.962 393.954 331.863 393.349 323.239C393.041 318.815 389.937 304.582 387.393 297.369C384.079 287.955 368.971 259.294 338.248 269.747L316.053 275.176" stroke="#2E186A" stroke-width="6" stroke-miterlimit="10" stroke-linecap="round" stroke-linejoin="round"/>
<path d="M356.876 300.778C356.373 305.768 353.439 316.259 357.281 323.151" stroke="#2E186A" stroke-width="6" stroke-miterlimit="10" stroke-linecap="round" stroke-linejoin="round"/>
<path d="M386.613 322.698C386.613 322.698 384.216 343.076 377.402 344.662C370.587 346.247 370.153 340.486 370.153 340.486" stroke="#2E186A" stroke-width="6" stroke-miterlimit="10" stroke-linecap="round" stroke-linejoin="round"/>
<path d="M378.436 321.995C378.436 321.995 374.751 339.96 367.839 341.033C360.927 342.106 360.922 336.331 360.922 336.331" stroke="#2E186A" stroke-width="6" stroke-miterlimit="10" stroke-linecap="round" stroke-linejoin="round"/>
<path d="M368.347 320.888C368.347 320.888 363.568 342.423 355.895 334.258C348.221 326.093 349.026 321.932 349.026 321.932C349.026 321.932 352.722 316.015 358.633 325.463" stroke="#2E186A" stroke-width="6" stroke-miterlimit="10" stroke-linecap="round" stroke-linejoin="round"/>
<path d="M331.869 322.62C314.613 308.626 308.76 273.395 316.053 265.689C316.346 263.235 321.95 267.371 325.342 267.747C333.489 268.654 337.009 268.898 337.009 268.898C333.704 279.058 337.384 291.354 341.167 300.071C343.359 305.29 345.653 309.387 346.791 311.304C346.141 311.631 343.52 312.918 337.287 315.655C333.679 317.235 332.918 319.927 331.869 322.62Z" fill="#2E186A"/>
<path d="M195.352 269.713C202.972 267.191 223.488 263.699 229.746 278.136" stroke="#2E186A" stroke-width="6" stroke-miterlimit="10" stroke-linecap="round" stroke-linejoin="round"/>
<path d="M195.353 286.233C195.353 286.233 313.749 255.846 321.403 267.445L339.381 307.611C339.381 307.611 332.205 320.605 331.561 326.044C330.917 331.482 329.662 333.76 316.946 340.296C304.226 346.832 237.776 384.979 190.139 392.471" stroke="#2E186A" stroke-width="6" stroke-miterlimit="10" stroke-linecap="round" stroke-linejoin="round"/>
<path d="M246.518 140.862C246.26 148.471 245.918 158.772 245.63 168.035C248.466 176.127 255.017 187.282 262.783 199.793C275.069 206.28 290.431 214.425 310.947 228.634C315.32 221.381 319.406 199.134 320.661 179.946" stroke="#2E186A" stroke-width="6" stroke-miterlimit="10" stroke-linecap="round" stroke-linejoin="round"/>
<path d="M240.27 105.139C236.595 105.465 222.834 107.66 225.753 122.225C228.072 133.799 238.655 132.77 244.995 131.019" stroke="#2E186A" stroke-width="6" stroke-miterlimit="10" stroke-linecap="round" stroke-linejoin="round"/>
<path d="M337.14 77.8973C339.747 97.7686 338.541 119.088 336.506 134.945" stroke="#2E186A" stroke-width="6" stroke-miterlimit="10" stroke-linecap="round" stroke-linejoin="round"/>
<path d="M336.501 134.945C335.642 141.628 334.636 147.339 333.708 151.559" stroke="#2E186A" stroke-width="6" stroke-miterlimit="10" stroke-linecap="round" stroke-linejoin="round"/>
<path d="M251.092 108.631C254.167 111.743 262.427 129.682 264.443 138.047C264.443 138.047 284.886 131.014 314.169 130.585C314.169 130.585 330.135 130.916 336.501 132.843C336.501 132.843 335.119 162.465 322.174 177.805C309.229 193.145 281.859 188.852 269.021 179.629C256.183 170.405 254.06 166.006 251.092 156.138C248.119 146.271 240.27 109.484 240.27 109.484L251.092 108.631Z" stroke="#2E186A" stroke-width="6" stroke-miterlimit="10" stroke-linecap="round" stroke-linejoin="round"/>
<path d="M306.129 156.202C306.129 156.202 314.11 154.617 317.351 157.787Z" fill="white"/>
<path d="M306.129 156.202C306.129 156.202 314.11 154.617 317.351 157.787" stroke="#2E186A" stroke-width="6" stroke-miterlimit="10" stroke-linecap="round" stroke-linejoin="round"/>
<path d="M316.282 119.186L319.25 144.998L310.146 142.671" stroke="#2E186A" stroke-width="6" stroke-miterlimit="10" stroke-linecap="round" stroke-linejoin="round"/>
<path d="M325.815 126.166C327.277 126.166 328.461 124.334 328.461 122.073C328.461 119.813 327.277 117.981 325.815 117.981C324.354 117.981 323.17 119.813 323.17 122.073C323.17 124.334 324.354 126.166 325.815 126.166Z" fill="#2E186A"/>
<path d="M300.34 125.717C301.801 125.717 302.985 123.885 302.985 121.625C302.985 119.365 301.801 117.532 300.34 117.532C298.878 117.532 297.694 119.365 297.694 121.625C297.694 123.885 298.878 125.717 300.34 125.717Z" fill="#2E186A"/>
<path d="M288.864 100.261C288.864 100.261 292.793 94.6176 300.345 95.7492" stroke="#2E186A" stroke-width="6" stroke-miterlimit="10" stroke-linecap="round" stroke-linejoin="round"/>
<path d="M324.649 95.32C324.649 95.32 331.99 93.4177 333.826 99.4123" stroke="#2E186A" stroke-width="6" stroke-miterlimit="10" stroke-linecap="round" stroke-linejoin="round"/>
<path d="M353.966 73.7172C353.326 71.8344 354.054 69.5371 355.406 67.23L355.05 66.8349L353.395 71.4686C353.395 71.4686 348.216 73.6977 346.502 67.0983C345.975 65.0741 347.171 62.6061 349.08 60.1624L349.021 60.099C341.826 61.772 327.753 64.5035 326.484 61.6598C324.693 57.6553 350.08 47.0174 357.812 43.6372C361.776 41.9057 375.488 38.1451 382.878 37.072C385.885 36.6379 391.367 36.2526 397.634 36.8769C398.166 32.4627 397.444 28.0338 395.111 23.7367C392.709 19.3176 387.706 12.7475 383.259 10.3917C339.185 -12.967 317.683 26.5023 317.683 26.5023C317.683 26.5023 311.479 9.5381 291.397 8.94791C283.192 8.70891 275.186 11.9037 269.387 17.7129C252.942 34.1845 263.901 52.8314 263.901 52.8314C263.901 52.8314 256.242 48.9147 245.913 53.9094C233.573 59.8795 227.379 73.8391 230.576 87.1598C233.978 101.329 240.27 114.777 240.27 114.777C280.375 120.981 290.626 81.6335 284.719 76.5559C293.613 83.1309 309.609 87.5354 336.715 84.8088C342.919 84.1845 350.544 81.7554 358.276 78.0436C356.778 77.8583 355.035 76.8681 353.966 73.7172Z" fill="#2E186A"/>
<path d="M391.567 69.9371L397.947 95.598L434.191 84.8918" stroke="#2E186A" stroke-width="6" stroke-miterlimit="10" stroke-linecap="round" stroke-linejoin="round"/>
<path d="M349.026 60.099C341.831 61.772 327.758 64.5034 326.489 61.6598C324.698 57.6553 350.086 47.0173 357.818 43.6372C361.781 41.9056 375.493 38.145 382.888 37.072C392.529 35.677 427.577 34.7941 432.434 66.0496L437.622 85.3794L403.15 95.5882" stroke="#2E186A" stroke-width="6" stroke-miterlimit="10" stroke-linecap="round" stroke-linejoin="round"/>
<path d="M401.32 65.0057C397.234 67.6982 381.902 74.9462 374.204 74.7462" stroke="#2E186A" stroke-width="6" stroke-miterlimit="10" stroke-linecap="round" stroke-linejoin="round"/>
<path d="M361.332 49.2074C361.332 49.2074 344.794 60.499 346.507 67.0983C348.221 73.6977 353.4 71.4686 353.4 71.4686" stroke="#2E186A" stroke-width="6" stroke-miterlimit="10" stroke-linecap="round" stroke-linejoin="round"/>
<path d="M365.633 55.953C365.633 55.953 351.765 67.2592 353.961 73.7171C356.158 80.175 361.156 77.5655 361.156 77.5655" stroke="#2E186A" stroke-width="6" stroke-miterlimit="10" stroke-linecap="round" stroke-linejoin="round"/>
<path d="M371.158 64.162C371.158 64.162 354.698 78.0338 365.227 80.9603C375.756 83.8917 378.993 81.3115 378.993 81.3115C378.993 81.3115 382.439 75.4487 371.593 74.6146" stroke="#2E186A" stroke-width="6" stroke-miterlimit="10" stroke-linecap="round" stroke-linejoin="round"/>
<path d="M388.067 98.4121C394.989 107.587 441.923 100.675 449.64 88.8228C445.94 83.7501 442.992 86.6425 441.356 83.6477C437.427 76.4533 435.87 73.2975 435.87 73.2975C427.713 80.2041 414.929 81.4625 405.425 81.2674C399.758 81.2187 395.101 80.648 392.89 80.3261C392.831 81.0528 392.631 83.9647 392.465 90.7641C392.368 94.6954 390.161 96.4172 388.067 98.4121Z" fill="#2E186A"/>
<path d="M644.043 256.707H454.499C452.013 256.707 449.853 258.414 449.278 260.825L422.928 372.071H354.22C354.22 372.071 350.413 391.684 372.614 391.684H614.598C617.085 391.684 619.244 389.977 619.819 387.566L649.259 263.285C650.054 259.926 647.5 256.707 644.043 256.707Z" fill="#2E186A"/>
<path d="M3.63477 392.554H742.654" stroke="#2E186A" stroke-width="6" stroke-miterlimit="10" stroke-linecap="round" stroke-linejoin="round"/>
<path d="M71.5884 393C71.5884 394.657 72.9315 396 74.5884 396C76.2453 396 77.5884 394.657 77.5884 393H71.5884ZM194.85 155.38C196.507 155.38 197.85 154.037 197.85 152.38C197.85 150.723 196.507 149.38 194.85 149.38V155.38ZM275.125 240.756C274.601 239.184 272.901 238.335 271.33 238.86C269.758 239.384 268.909 241.083 269.433 242.655L275.125 240.756ZM275.938 267.771C276.105 269.419 277.576 270.62 279.224 270.454C280.873 270.287 282.074 268.815 281.907 267.167L275.938 267.771ZM346.618 235.602C346.715 233.948 345.453 232.528 343.799 232.431C342.145 232.333 340.725 233.595 340.628 235.249L346.618 235.602ZM341.181 268.465C341.323 270.115 342.777 271.338 344.428 271.195C346.079 271.052 347.301 269.598 347.158 267.948L341.181 268.465ZM400.309 178.192C399.151 177.008 397.251 176.987 396.067 178.146C394.883 179.305 394.862 181.204 396.021 182.388L400.309 178.192ZM419.267 213.892C420.923 213.862 422.242 212.495 422.212 210.839C422.183 209.182 420.816 207.863 419.159 207.893L419.267 213.892ZM200.867 189.172L203.472 187.684L202.129 185.334L199.654 186.429L200.867 189.172ZM172.054 213.774L169.544 212.13L164.239 220.228L173.194 216.549L172.054 213.774ZM261.99 239.513L262.816 242.397L277.624 238.156L262.306 236.53L261.99 239.513ZM228.135 127.682C229.631 126.97 230.266 125.179 229.553 123.684C228.841 122.188 227.051 121.553 225.555 122.265L228.135 127.682ZM200.775 191.809L201.242 194.773C202.221 194.618 203.061 193.99 203.485 193.095C203.91 192.2 203.865 191.152 203.365 190.296L200.775 191.809ZM141.819 252.243L144.268 253.977L144.268 253.976L141.819 252.243ZM192.307 395.917C193.964 395.945 195.33 394.626 195.359 392.969C195.388 391.312 194.068 389.946 192.411 389.917L192.307 395.917ZM378.524 285.057C378.61 286.711 380.021 287.983 381.675 287.898C383.33 287.812 384.602 286.401 384.516 284.747L378.524 285.057ZM381.506 284.618L381.79 281.632C380.921 281.549 380.06 281.849 379.431 282.452C378.801 283.055 378.465 283.902 378.51 284.773L381.506 284.618ZM482.541 193.802L485.459 193.103C485.446 193.047 485.43 192.99 485.413 192.935L482.541 193.802ZM451.946 92.4567L454.818 91.5897C454.779 91.459 454.73 91.3312 454.674 91.2071L451.946 92.4567ZM441.715 83.7452L439.082 85.1819L439.082 85.1825L441.715 83.7452ZM436.229 73.3831L438.92 72.0569C438.511 71.2281 437.744 70.6338 436.839 70.4458C435.934 70.2579 434.994 70.4973 434.289 71.0948L436.229 73.3831ZM393.264 80.2293L393.811 77.2795C392.982 77.126 392.127 77.3281 391.455 77.8364C390.783 78.3446 390.355 79.1122 390.277 79.9513L393.264 80.2293ZM384.742 108.361L381.756 108.656C381.765 108.741 381.777 108.827 381.793 108.911L384.742 108.361ZM398.165 180.3L397.539 183.234C398.52 183.443 399.541 183.148 400.259 182.448C400.977 181.748 401.298 180.735 401.114 179.749L398.165 180.3ZM360.868 172.345L357.917 172.884C358.135 174.08 359.054 175.026 360.242 175.279L360.868 172.345ZM339.726 124.667C338.467 123.59 336.573 123.737 335.496 124.996C334.418 126.255 334.566 128.148 335.824 129.226L339.726 124.667ZM383.968 392.697C383.992 394.353 385.354 395.677 387.011 395.653C388.668 395.629 389.991 394.266 389.967 392.61L383.968 392.697ZM389.362 350.844C389.338 349.187 387.976 347.864 386.319 347.888C384.662 347.912 383.339 349.274 383.363 350.931L389.362 350.844ZM378.265 176.047L381.231 175.601L380.979 173.92L379.407 173.273L378.265 176.047ZM359.379 171.867L359.857 168.905L355.642 168.225L356.431 172.421L359.379 171.867ZM360.653 186.741L363.65 186.87L363.651 186.868L360.653 186.741ZM347.088 231.978L344.18 231.244L342.786 236.762L348.126 234.793L347.088 231.978ZM317.303 340.682L318.676 343.349L318.676 343.349L317.303 340.682ZM298.052 350.57L296.708 347.888L294.899 348.795L295.062 350.812L298.052 350.57ZM301.005 391.33L298.011 391.512L298.18 394.291L300.963 394.329L301.005 391.33ZM339.132 391.862L339.09 394.862L342.215 394.905L342.131 391.781L339.132 391.862ZM337.253 312.726L340.252 312.664L340.001 300.529L334.57 311.383L337.253 312.726ZM336.374 235.64L339.373 235.708L339.373 235.708L336.374 235.64ZM321.023 180.148L323.636 178.675L318.686 169.895L318.029 179.953L321.023 180.148ZM311.309 228.892L309.6 231.357L312.228 233.18L313.879 230.44L311.309 228.892ZM263.147 200.018L260.597 201.599L261.026 202.29L261.745 202.67L263.147 200.018ZM245.994 168.224L242.996 168.128L242.978 168.686L243.162 169.213L245.994 168.224ZM246.111 164.503L249.11 164.596L249.217 161.174L245.81 161.518L246.111 164.503ZM244.779 164.634L244.487 161.649L240.844 162.004L241.908 165.506L244.779 164.634ZM270.82 213.432L268.373 215.167L268.453 215.28L268.542 215.384L270.82 213.432ZM279.367 224.966L276.838 226.58L277.014 226.855L277.244 227.086L279.367 224.966ZM279.372 224.971L281.9 223.356L281.724 223.081L281.494 222.851L279.372 224.971ZM289.256 266.946L286.287 267.375L286.713 270.328L289.668 269.918L289.256 266.946ZM321.77 267.747L319.266 269.4L319.963 270.456L321.206 270.694L321.77 267.747ZM336.511 270.57L335.947 273.516L339.584 274.212L339.51 270.51L336.511 270.57ZM356.608 309.781C358.231 309.448 359.278 307.863 358.945 306.24C358.613 304.617 357.028 303.57 355.405 303.903L356.608 309.781ZM332.722 308.547C331.099 308.879 330.052 310.464 330.385 312.087C330.717 313.71 332.302 314.757 333.925 314.425L332.722 308.547ZM385.825 338.673C385.409 337.07 383.771 336.107 382.168 336.523C380.564 336.939 379.601 338.577 380.018 340.181L385.825 338.673ZM392.22 360.649L392.403 363.643L392.406 363.643L392.22 360.649ZM393.704 323.606L390.711 323.813L390.711 323.815L393.704 323.606ZM387.749 297.705L384.919 298.701L384.919 298.702L387.749 297.705ZM338.605 270.052L339.319 272.966C339.404 272.945 339.489 272.92 339.572 272.892L338.605 270.052ZM315.697 272.573C314.087 272.967 313.102 274.591 313.496 276.2C313.89 277.81 315.514 278.795 317.124 278.401L315.697 272.573ZM360.217 301.419C360.382 299.77 359.181 298.3 357.532 298.134C355.884 297.968 354.413 299.17 354.247 300.818L360.217 301.419ZM355.016 324.977C355.822 326.425 357.648 326.945 359.096 326.139C360.544 325.333 361.064 323.506 360.258 322.058L355.016 324.977ZM389.947 323.414C390.141 321.768 388.963 320.277 387.318 320.084C385.672 319.891 384.182 321.068 383.988 322.714L389.947 323.414ZM373.5 340.647C373.376 338.995 371.935 337.756 370.283 337.881C368.631 338.005 367.393 339.446 367.517 341.098L373.5 340.647ZM381.731 322.963C382.063 321.339 381.017 319.754 379.394 319.421C377.771 319.089 376.185 320.135 375.853 321.758L381.731 322.963ZM364.278 336.709C364.277 335.053 362.933 333.711 361.276 333.712C359.619 333.713 358.277 335.058 358.278 336.715L364.278 336.709ZM371.631 321.901C371.99 320.283 370.969 318.681 369.352 318.323C367.734 317.964 366.132 318.985 365.774 320.603L371.631 321.901ZM349.383 322.297L346.837 320.709C346.643 321.021 346.507 321.366 346.437 321.727L349.383 322.297ZM356.445 327.422C357.323 328.827 359.174 329.254 360.579 328.376C361.984 327.498 362.411 325.647 361.533 324.242L356.445 327.422ZM332.225 322.985L330.334 325.314L333.528 327.908L335.021 324.074L332.225 322.985ZM316.41 265.989L318.59 268.05L319.272 267.329L319.389 266.344L316.41 265.989ZM325.699 268.05L326.032 265.068L326.03 265.068L325.699 268.05ZM337.365 269.202L340.218 270.129L341.405 266.475L337.573 266.209L337.365 269.202ZM341.524 300.41L344.29 299.25L344.284 299.234L344.276 299.217L341.524 300.41ZM347.147 311.656L348.497 314.335L351.365 312.89L349.728 310.127L347.147 311.656ZM337.643 316.012L338.848 318.759L338.85 318.759L337.643 316.012ZM194.769 267.17C193.197 267.691 192.344 269.389 192.865 270.961C193.386 272.534 195.084 273.387 196.656 272.866L194.769 267.17ZM227.353 279.643C228.011 281.163 229.777 281.862 231.298 281.204C232.818 280.546 233.517 278.78 232.859 277.259L227.353 279.643ZM194.966 283.651C193.362 284.064 192.395 285.699 192.807 287.304C193.22 288.908 194.855 289.875 196.459 289.463L194.966 283.651ZM321.76 267.747L324.499 266.523C324.432 266.374 324.354 266.232 324.265 266.096L321.76 267.747ZM339.737 307.96L342.364 309.409C342.819 308.585 342.86 307.595 342.476 306.735L339.737 307.96ZM190.033 389.953C188.396 390.211 187.279 391.747 187.536 393.383C187.794 395.02 189.33 396.138 190.966 395.88L190.033 389.953ZM249.876 141.121C249.932 139.466 248.635 138.078 246.979 138.021C245.323 137.965 243.936 139.262 243.879 140.918L249.876 141.121ZM245.989 168.224L242.991 168.131C242.979 168.499 243.036 168.867 243.158 169.215L245.989 168.224ZM263.142 200.018L260.592 201.599C260.873 202.051 261.269 202.421 261.74 202.67L263.142 200.018ZM311.304 228.892L309.595 231.357C310.276 231.83 311.123 231.999 311.933 231.825C312.744 231.651 313.446 231.15 313.874 230.44L311.304 228.892ZM324.012 180.344C324.12 178.69 322.867 177.263 321.213 177.155C319.56 177.047 318.132 178.299 318.024 179.953L324.012 180.344ZM240.896 108.244C242.546 108.097 243.765 106.64 243.618 104.989C243.471 103.339 242.014 102.12 240.364 102.267L240.896 108.244ZM226.113 122.361L229.055 121.772L229.054 121.772L226.113 122.361ZM246.154 134.057C247.751 133.615 248.688 131.963 248.246 130.366C247.805 128.769 246.152 127.832 244.555 128.274L246.154 134.057ZM340.471 77.5933C340.256 75.9505 338.75 74.7932 337.107 75.0085C335.464 75.2237 334.307 76.73 334.522 78.3728L340.471 77.5933ZM333.887 134.715C333.676 136.358 334.837 137.861 336.481 138.072C338.124 138.283 339.627 137.121 339.838 135.478L333.887 134.715ZM339.833 135.478C340.044 133.835 338.883 132.332 337.24 132.121C335.596 131.91 334.093 133.071 333.882 134.714L339.833 135.478ZM331.135 151.085C330.78 152.703 331.804 154.303 333.422 154.659C335.04 155.014 336.64 153.99 336.996 152.372L331.135 151.085ZM251.451 108.752L253.586 106.644C252.965 106.015 252.097 105.691 251.215 105.761L251.451 108.752ZM264.801 138.202L261.885 138.904C262.082 139.726 262.618 140.426 263.359 140.833C264.101 141.239 264.979 141.314 265.778 141.038L264.801 138.202ZM314.526 130.731L314.588 127.731C314.553 127.731 314.517 127.731 314.482 127.731L314.526 130.731ZM336.857 132.992L339.854 133.131C339.918 131.759 339.042 130.519 337.728 130.121L336.857 132.992ZM251.451 156.314L254.324 155.45L254.324 155.449L251.451 156.314ZM240.63 109.606L240.393 106.616C239.532 106.684 238.742 107.12 238.225 107.812C237.708 108.505 237.515 109.387 237.695 110.232L240.63 109.606ZM305.902 153.435C304.277 153.758 303.221 155.337 303.544 156.962C303.867 158.587 305.447 159.643 307.072 159.319L305.902 153.435ZM315.61 160.107C316.793 161.267 318.693 161.247 319.852 160.063C321.011 158.879 320.991 156.98 319.808 155.821L315.61 160.107ZM319.62 118.977C319.431 117.331 317.943 116.149 316.297 116.338C314.651 116.527 313.47 118.015 313.659 119.661L319.62 118.977ZM319.607 145.16L318.864 148.067C319.82 148.312 320.836 148.07 321.579 147.421C322.323 146.772 322.7 145.799 322.588 144.818L319.607 145.16ZM311.247 139.925C309.642 139.514 308.008 140.482 307.597 142.088C307.187 143.693 308.155 145.327 309.76 145.738L311.247 139.925ZM286.759 98.6592C285.813 100.019 286.149 101.889 287.509 102.835C288.869 103.781 290.739 103.445 291.685 102.085L286.759 98.6592ZM300.257 98.8221C301.896 99.0679 303.424 97.9389 303.669 96.3004C303.915 94.6619 302.786 93.1343 301.148 92.8885L300.257 98.8221ZM324.253 92.5217C322.649 92.9378 321.686 94.5751 322.102 96.1789C322.518 97.7827 324.156 98.7455 325.759 98.3295L324.253 92.5217ZM331.314 100.4C331.798 101.984 333.476 102.876 335.06 102.391C336.644 101.907 337.536 100.23 337.051 98.6453L331.314 100.4ZM354.322 73.7981L357.164 72.8353L357.163 72.8343L354.322 73.7981ZM355.762 67.3035L358.351 68.8191L359.46 66.9257L357.991 65.2956L355.762 67.3035ZM355.406 66.908L357.635 64.9L354.27 61.1643L352.58 65.9001L355.406 66.908ZM353.751 71.547L354.938 74.3021L356.138 73.7852L356.577 72.5549L353.751 71.547ZM346.859 67.1717L349.763 66.4186L349.762 66.4164L346.859 67.1717ZM349.436 60.2278L351.802 62.0731L353.368 60.0647L351.641 58.193L349.436 60.2278ZM349.378 60.1643L351.582 58.1295L350.398 56.8466L348.698 57.2425L349.378 60.1643ZM326.841 61.7269L329.581 60.5054L329.58 60.5031L326.841 61.7269ZM358.169 43.6837L356.967 40.9351L356.966 40.9354L358.169 43.6837ZM383.234 37.111L382.805 34.1418L382.802 34.1422L383.234 37.111ZM397.99 36.9156L397.692 39.9008L400.617 40.1925L400.968 37.2742L397.99 36.9156ZM395.466 23.7604L398.103 22.3302L398.103 22.3292L395.466 23.7604ZM383.614 10.4001L382.208 13.0502L382.209 13.0504L383.614 10.4001ZM318.04 26.5292L315.223 27.5585L317.501 33.7966L320.676 27.9631L318.04 26.5292ZM291.755 8.95471L291.843 5.95601L291.843 5.95599L291.755 8.95471ZM269.746 17.7297L271.87 19.8481L271.87 19.848L269.746 17.7297ZM264.259 52.8884L262.892 55.5588L272.061 60.2533L266.847 51.3698L264.259 52.8884ZM246.272 53.9676L244.965 51.2674L244.964 51.2677L246.272 53.9676ZM230.936 87.2561L228.018 87.9555L228.018 87.9557L230.936 87.2561ZM240.63 114.904L237.912 116.175L238.589 117.624L240.17 117.869L240.63 114.904ZM285.078 76.6401L286.863 74.2287L283.121 78.9139L285.078 76.6401ZM337.072 84.9024L337.373 87.8873L337.373 87.8873L337.072 84.9024ZM358.632 78.1295L359.932 80.8334L369.14 76.4077L359.001 75.1522L358.632 78.1295ZM394.834 69.2906C394.435 67.6826 392.807 66.7028 391.199 67.1021C389.591 67.5014 388.611 69.1287 389.011 70.7367L394.834 69.2906ZM398.302 95.7039L395.39 96.4269C395.588 97.2214 396.101 97.9008 396.812 98.3075C397.522 98.7142 398.368 98.8129 399.153 98.5807L398.302 95.7039ZM435.396 87.8622C436.985 87.3924 437.892 85.7234 437.422 84.1346C436.952 82.5458 435.283 81.6387 433.694 82.1086L435.396 87.8622ZM350.063 63.0862C351.676 62.7105 352.68 61.0978 352.304 59.4841C351.929 57.8704 350.316 56.8668 348.702 57.2424L350.063 63.0862ZM326.846 61.7269L329.586 60.5054L329.585 60.503L326.846 61.7269ZM358.174 43.6837L356.971 40.9351L356.971 40.9354L358.174 43.6837ZM383.243 37.111L382.813 34.142L382.812 34.1421L383.243 37.111ZM432.788 66.1218L429.823 66.5819C429.84 66.6886 429.862 66.7944 429.89 66.8987L432.788 66.1218ZM437.976 85.4737L438.829 88.3499C440.388 87.8877 441.295 86.2674 440.874 84.6968L437.976 85.4737ZM402.653 92.8179C401.064 93.2889 400.158 94.9584 400.629 96.5469C401.1 98.1354 402.77 99.0413 404.358 98.5704L402.653 92.8179ZM403.327 67.5808C404.71 66.6684 405.091 64.8076 404.179 63.4246C403.267 62.0416 401.406 61.6602 400.023 62.5726L403.327 67.5808ZM374.638 71.8294C372.982 71.7863 371.604 73.0941 371.561 74.7504C371.518 76.4066 372.826 77.7843 374.482 77.8273L374.638 71.8294ZM363.381 51.7369C364.749 50.8019 365.1 48.9351 364.165 47.5672C363.23 46.1994 361.363 45.8485 359.995 46.7835L363.381 51.7369ZM354.943 74.302C356.465 73.6464 357.167 71.8813 356.511 70.3597C355.856 68.8381 354.091 68.1361 352.569 68.7918L354.943 74.302ZM367.886 58.3377C369.169 57.29 369.36 55.4002 368.313 54.1166C367.265 52.8331 365.375 52.6418 364.092 53.6895L367.886 58.3377ZM362.902 80.3096C364.37 79.5421 364.939 77.7296 364.171 76.2612C363.404 74.7929 361.591 74.2247 360.123 74.9921L362.902 80.3096ZM373.449 66.5249C374.715 65.4564 374.875 63.5637 373.807 62.2974C372.738 61.0311 370.846 60.8707 369.579 61.9391L373.449 66.5249ZM365.583 81.0496L366.389 78.1597L366.388 78.1594L365.583 81.0496ZM379.348 81.4011L381.22 83.7458C381.507 83.5167 381.749 83.2368 381.935 82.9201L379.348 81.4011ZM372.179 71.7054C370.527 71.5783 369.084 72.8143 368.957 74.4663C368.83 76.1183 370.066 77.5606 371.718 77.6877L372.179 71.7054ZM388.422 98.5214L386.352 96.3504L384.419 98.1938L386.027 100.327L388.422 98.5214ZM449.994 88.9211L452.509 90.5567L453.635 88.8245L452.419 87.1545L449.994 88.9211ZM441.71 83.7401L444.344 82.3037L444.344 82.3033L441.71 83.7401ZM436.224 73.378L438.915 72.0518L437.216 68.6043L434.284 71.0896L436.224 73.378ZM405.78 81.3571L405.842 78.3577L405.824 78.3574L405.806 78.3572L405.78 81.3571ZM393.245 80.4146L393.678 77.446L390.512 76.9845L390.255 80.1739L393.245 80.4146ZM392.82 90.8646L395.819 90.939L395.82 90.9377L392.82 90.8646ZM449.631 261.12L446.713 260.425L446.712 260.43L449.631 261.12ZM423.282 372.493V375.493H425.656L426.202 373.184L423.282 372.493ZM354.576 372.493V369.493H352.102L351.631 371.922L354.576 372.493ZM620.168 388.006L623.087 388.701L623.088 388.696L620.168 388.006ZM649.608 263.583L652.527 264.274L652.527 264.273L649.608 263.583ZM4 390C2.34315 390 1 391.343 1 393C1 394.657 2.34315 396 4 396V390ZM743 396C744.657 396 746 394.657 746 393C746 391.343 744.657 390 743 390V396ZM77.5884 393V220.09H71.5884V393H77.5884ZM77.5884 220.09C77.5884 184.339 106.45 155.38 142.031 155.38V149.38C103.114 149.38 71.5884 181.048 71.5884 220.09H77.5884ZM142.031 155.38H194.85V149.38H142.031V155.38ZM272.279 241.705C269.433 242.655 269.433 242.655 269.433 242.655C269.433 242.655 269.433 242.655 269.434 242.655C269.434 242.655 269.434 242.656 269.434 242.657C269.435 242.659 269.436 242.661 269.437 242.665C269.439 242.673 269.443 242.685 269.449 242.7C269.459 242.732 269.475 242.78 269.496 242.842C269.537 242.968 269.599 243.156 269.677 243.397C269.835 243.881 270.062 244.584 270.337 245.455C270.888 247.196 271.631 249.604 272.4 252.269C273.96 257.68 275.544 263.877 275.938 267.771L281.907 267.167C281.452 262.662 279.714 255.977 278.165 250.606C277.379 247.88 276.62 245.421 276.058 243.645C275.777 242.756 275.545 242.037 275.382 241.538C275.301 241.289 275.237 241.095 275.193 240.962C275.172 240.896 275.155 240.845 275.143 240.81C275.137 240.793 275.133 240.78 275.13 240.771C275.128 240.766 275.127 240.763 275.126 240.76C275.126 240.759 275.126 240.758 275.125 240.757C275.125 240.757 275.125 240.756 275.125 240.756C275.125 240.756 275.125 240.756 272.279 241.705ZM343.623 235.426C340.628 235.249 340.628 235.249 340.628 235.25C340.628 235.25 340.628 235.25 340.628 235.251C340.628 235.252 340.628 235.253 340.628 235.254C340.628 235.256 340.627 235.26 340.627 235.264C340.627 235.273 340.626 235.286 340.625 235.302C340.623 235.335 340.62 235.383 340.617 235.445C340.61 235.57 340.601 235.753 340.589 235.99C340.566 236.465 340.535 237.158 340.503 238.042C340.438 239.809 340.367 242.338 340.343 245.403C340.295 251.528 340.433 259.823 341.181 268.465L347.158 267.948C346.432 259.552 346.296 251.457 346.343 245.45C346.367 242.45 346.436 239.979 346.499 238.262C346.53 237.403 346.56 236.733 346.582 236.281C346.593 236.054 346.602 235.882 346.608 235.768C346.611 235.711 346.614 235.668 346.615 235.64C346.616 235.626 346.617 235.616 346.617 235.61C346.617 235.607 346.617 235.604 346.618 235.603C346.618 235.602 346.618 235.602 346.618 235.602C346.618 235.602 346.618 235.602 346.618 235.602C346.618 235.602 346.618 235.602 343.623 235.426ZM396.021 182.388C395.679 182.039 395.624 181.757 395.728 182.034C395.794 182.209 395.884 182.503 396 182.958C396.233 183.874 396.484 185.084 396.816 186.628C397.462 189.631 398.354 193.6 399.796 197.529C402.602 205.18 408.067 214.093 419.267 213.892L419.159 207.893C412.113 208.019 408.074 202.674 405.428 195.463C404.144 191.961 403.323 188.349 402.682 185.367C402.37 183.918 402.084 182.536 401.814 181.476C401.678 180.943 401.525 180.405 401.346 179.928C401.206 179.553 400.907 178.802 400.309 178.192L396.021 182.388ZM199.654 186.429C191.297 190.124 179.257 197.303 169.544 212.13L174.563 215.418C183.467 201.825 194.447 195.292 202.08 191.916L199.654 186.429ZM173.194 216.549C173.981 216.225 175.384 216.12 177.709 216.64C179.972 217.146 182.719 218.152 185.932 219.561C192.423 222.408 200.038 226.537 208.649 230.748C217.125 234.893 226.353 239.003 235.542 241.484C244.719 243.962 254.113 244.889 262.816 242.397L261.164 236.629C253.924 238.702 245.739 238.023 237.106 235.692C228.486 233.364 219.674 229.461 211.285 225.358C203.031 221.322 194.958 216.968 188.342 214.066C185.002 212.601 181.841 211.415 179.018 210.784C176.257 210.167 173.394 209.98 170.913 210.999L173.194 216.549ZM262.306 236.53C259.163 236.196 254.798 234.647 249.643 231.913C244.544 229.209 238.883 225.459 233.193 220.948C221.789 211.905 210.504 199.99 203.472 187.684L198.263 190.661C205.776 203.81 217.648 216.279 229.466 225.65C235.388 230.345 241.354 234.309 246.831 237.214C252.252 240.089 257.412 242.044 261.673 242.496L262.306 236.53ZM225.555 122.265C205.754 131.697 195.132 143.326 191.487 156.032C187.853 168.698 191.377 181.667 198.184 193.322L203.365 190.296C197.022 179.436 194.238 168.201 197.254 157.686C200.26 147.21 209.248 136.679 228.135 127.682L225.555 122.265ZM200.307 188.846C195.983 189.528 189.544 192.628 179.93 201.503C170.259 210.43 157.108 225.451 139.371 250.51L144.268 253.976C161.88 229.095 174.756 214.444 184 205.912C193.3 197.326 198.665 195.179 201.242 194.773L200.307 188.846ZM139.371 250.51C113.805 286.622 101.013 322.329 107.977 349.636C111.497 363.441 120.026 374.887 134.053 382.925C147.996 390.915 167.261 395.483 192.307 395.917L192.411 389.917C167.962 389.494 149.801 385.034 137.036 377.72C124.354 370.452 116.893 360.316 113.791 348.153C107.509 323.522 118.943 289.749 144.268 253.977L139.371 250.51ZM384.516 284.747L384.502 284.464L378.51 284.773L378.524 285.057L384.516 284.747ZM381.222 287.605C439.608 293.157 469.571 283.431 482.813 264.228C489.402 254.673 491.532 243.178 491.313 231.048C491.095 218.931 488.525 205.914 485.459 193.103L479.624 194.5C482.671 207.231 485.108 219.722 485.314 231.156C485.52 242.575 483.495 252.671 477.874 260.822C466.698 277.029 440.03 287.17 381.79 281.632L381.222 287.605ZM485.413 192.935L454.818 91.5897L449.074 93.3237L479.67 194.669L485.413 192.935ZM454.674 91.2071C452.183 85.7708 449.5 83.5895 446.668 82.6978C446.049 82.5029 445.485 82.3894 445.064 82.3088C444.586 82.2172 444.382 82.1814 444.193 82.1287C444.047 82.0878 444.088 82.0812 444.186 82.1507C444.306 82.2357 444.356 82.3219 444.348 82.3079L439.082 85.1825C439.997 86.859 441.362 87.5681 442.581 87.9082C443.077 88.0465 443.617 88.1407 443.935 88.2016C444.31 88.2734 444.593 88.3348 444.866 88.4208C445.601 88.6521 447.195 89.2884 449.219 93.7063L454.674 91.2071ZM444.349 82.3084C442.393 78.7227 441.03 76.1491 440.159 74.4772C439.724 73.6412 439.411 73.0308 439.209 72.632C439.108 72.4326 439.034 72.2861 438.986 72.1908C438.963 72.1432 438.945 72.1084 438.934 72.0861C438.929 72.075 438.925 72.067 438.922 72.0622C438.921 72.0597 438.92 72.0581 438.92 72.0572C438.92 72.0568 438.919 72.0565 438.919 72.0565C438.919 72.0565 438.919 72.0565 438.92 72.0566C438.92 72.0566 438.92 72.0567 438.92 72.0567C438.92 72.0568 438.92 72.0569 436.229 73.3831C433.538 74.7093 433.538 74.7095 433.538 74.7096C433.538 74.7097 433.538 74.7099 433.538 74.71C433.538 74.7102 433.538 74.7106 433.539 74.7109C433.539 74.7116 433.539 74.7126 433.54 74.7137C433.541 74.7159 433.543 74.7189 433.544 74.7227C433.548 74.7302 433.553 74.7408 433.56 74.7546C433.574 74.7822 433.594 74.8222 433.62 74.8751C433.673 74.9807 433.752 75.1373 433.858 75.3467C434.07 75.7653 434.393 76.3949 434.838 77.2491C435.728 78.9575 437.108 81.565 439.082 85.1819L444.349 82.3084ZM434.289 71.0948C427.949 76.4696 418.108 78.1732 409.308 78.3629C404.991 78.4559 401.096 78.1825 398.278 77.8847C396.871 77.7361 395.74 77.5821 394.966 77.4664C394.58 77.4086 394.283 77.3605 394.087 77.3275C393.989 77.311 393.916 77.2983 393.87 77.29C393.846 77.2859 393.83 77.2829 393.82 77.2811C393.815 77.2802 393.812 77.2796 393.81 77.2794C393.809 77.2792 393.809 77.2792 393.809 77.2792C393.809 77.2792 393.81 77.2793 393.81 77.2793C393.81 77.2793 393.811 77.2795 393.264 80.2293C392.718 83.1791 392.719 83.1793 392.72 83.1795C392.72 83.1795 392.721 83.1797 392.722 83.1799C392.724 83.1802 392.726 83.1807 392.729 83.1812C392.735 83.1821 392.742 83.1835 392.751 83.1851C392.768 83.1883 392.793 83.1927 392.824 83.1983C392.887 83.2093 392.977 83.2249 393.092 83.2443C393.322 83.283 393.655 83.337 394.079 83.4004C394.928 83.5273 396.145 83.6928 397.647 83.8515C400.646 84.1683 404.804 84.4613 409.437 84.3615C418.536 84.1654 430.178 82.4459 438.169 75.6715L434.289 71.0948ZM393.264 80.2293C390.277 79.9513 390.277 79.9516 390.277 79.9519C390.277 79.952 390.277 79.9524 390.277 79.9526C390.277 79.9531 390.277 79.9536 390.277 79.9541C390.277 79.9553 390.277 79.9565 390.277 79.958C390.276 79.9609 390.276 79.9644 390.276 79.9685C390.275 79.9768 390.274 79.9878 390.273 80.0013C390.271 80.0285 390.267 80.0665 390.263 80.1158C390.255 80.2145 390.244 80.359 390.231 80.5546C390.203 80.9457 390.165 81.5422 390.121 82.3872C390.034 84.0767 389.922 86.7642 389.821 90.7948L395.819 90.9445C395.919 86.9571 396.029 84.3243 396.113 82.6982C396.156 81.8853 396.191 81.3252 396.216 80.974C396.228 80.7985 396.238 80.6755 396.244 80.5994C396.247 80.5614 396.249 80.5352 396.25 80.5201C396.251 80.5125 396.252 80.5077 396.252 80.5056C396.252 80.5046 396.252 80.5042 396.252 80.5045C396.252 80.5046 396.252 80.5049 396.252 80.5054C396.252 80.5056 396.252 80.5059 396.252 80.5062C396.252 80.5064 396.252 80.5067 396.252 80.5068C396.252 80.507 396.252 80.5073 393.264 80.2293ZM389.821 90.7948C389.757 93.3504 388.59 94.2085 386.235 96.4699C385.099 97.5604 383.74 98.9805 382.806 101.019C381.855 103.096 381.452 105.566 381.756 108.656L387.727 108.067C387.508 105.838 387.827 104.465 388.261 103.518C388.712 102.533 389.4 101.749 390.39 100.798C392.287 98.9769 395.683 96.4071 395.819 90.9445L389.821 90.7948ZM381.793 108.911L395.216 180.85L401.114 179.749L387.691 107.811L381.793 108.911ZM398.791 177.366L361.494 169.411L360.242 175.279L397.539 183.234L398.791 177.366ZM363.819 171.806C361.396 158.553 355.152 137.87 339.726 124.667L335.824 129.226C349.646 141.054 355.566 160.022 357.917 172.884L363.819 171.806ZM389.967 392.61L389.362 350.844L383.363 350.931L383.968 392.697L389.967 392.61ZM379.407 173.273C373.1 170.675 364.757 169.695 359.857 168.905L358.901 174.828C364.292 175.698 371.646 176.565 377.122 178.82L379.407 173.273ZM356.431 172.421C357.535 178.294 357.797 183.304 357.656 186.613L363.651 186.868C363.813 183.058 363.508 177.589 362.328 171.312L356.431 172.421ZM357.656 186.612C357.12 199.059 354.428 207.645 351.594 214.274C350.154 217.642 348.695 220.472 347.362 223.222C346.061 225.905 344.86 228.55 344.18 231.244L349.997 232.713C350.513 230.669 351.467 228.508 352.761 225.84C354.021 223.239 355.597 220.175 357.111 216.633C360.184 209.443 363.079 200.146 363.65 186.87L357.656 186.612ZM348.126 234.793C364.481 228.763 373.402 217.684 377.876 206.214C382.309 194.852 382.368 183.169 381.231 175.601L375.298 176.492C376.319 183.291 376.251 193.872 372.287 204.034C368.364 214.087 360.619 223.792 346.05 229.163L348.126 234.793ZM328.939 326.058C328.646 328.516 328.293 329.679 326.97 331.059C325.378 332.72 322.319 334.727 315.931 338.014L318.676 343.349C325.003 340.094 328.927 337.688 331.301 335.211C333.943 332.455 334.541 329.755 334.897 326.768L328.939 326.058ZM315.931 338.014C312.645 339.705 305.858 343.301 296.708 347.888L299.396 353.252C308.58 348.649 315.47 344.999 318.676 343.349L315.931 338.014ZM295.062 350.812C296.01 362.542 296.747 372.72 297.248 379.965C297.498 383.587 297.689 386.475 297.817 388.458C297.881 389.449 297.929 390.213 297.962 390.73C297.978 390.988 297.99 391.184 297.998 391.315C298.003 391.381 298.006 391.431 298.008 391.463C298.009 391.48 298.009 391.492 298.01 391.501C298.01 391.505 298.01 391.508 298.01 391.51C298.01 391.511 298.011 391.511 298.011 391.512C298.011 391.512 298.011 391.512 298.011 391.512C298.011 391.512 298.011 391.512 301.005 391.33C303.999 391.147 303.999 391.147 303.999 391.147C303.999 391.146 303.999 391.146 303.999 391.146C303.999 391.145 303.999 391.145 303.999 391.143C303.999 391.141 303.999 391.138 303.999 391.134C303.998 391.125 303.997 391.112 303.996 391.095C303.994 391.062 303.991 391.011 303.987 390.945C303.979 390.812 303.966 390.614 303.95 390.354C303.917 389.834 303.869 389.065 303.804 388.07C303.676 386.08 303.484 383.183 303.233 379.551C302.732 372.288 301.993 362.086 301.042 350.328L295.062 350.812ZM300.963 394.329L339.09 394.862L339.174 388.862L301.047 388.33L300.963 394.329ZM339.132 391.862C342.131 391.781 342.131 391.781 342.131 391.781C342.131 391.781 342.131 391.78 342.131 391.78C342.131 391.778 342.131 391.777 342.131 391.774C342.131 391.77 342.131 391.762 342.13 391.753C342.13 391.734 342.129 391.706 342.128 391.668C342.126 391.592 342.123 391.48 342.119 391.331C342.111 391.034 342.099 390.593 342.084 390.018C342.054 388.867 342.009 387.178 341.954 385.027C341.842 380.725 341.684 374.573 341.501 367.175C341.134 352.378 340.665 332.598 340.252 312.664L334.254 312.788C334.666 332.734 335.136 352.522 335.503 367.323C335.686 374.724 335.844 380.879 335.956 385.183C336.011 387.335 336.056 389.025 336.086 390.177C336.102 390.752 336.113 391.194 336.121 391.491C336.125 391.64 336.128 391.753 336.13 391.828C336.131 391.866 336.132 391.895 336.132 391.914C336.133 391.923 336.133 391.93 336.133 391.935C336.133 391.938 336.133 391.939 336.133 391.941C336.133 391.941 336.133 391.942 336.133 391.942C336.133 391.942 336.133 391.943 339.132 391.862ZM334.57 311.383C333.485 313.552 332.213 316.219 331.156 318.789C330.134 321.273 329.186 323.961 328.938 326.062L334.897 326.765C335.04 325.555 335.691 323.535 336.704 321.072C337.683 318.693 338.883 316.172 339.936 314.068L334.57 311.383ZM339.373 235.708C339.864 213.93 331.569 192.746 323.636 178.675L318.41 181.622C326.048 195.17 333.832 215.268 333.375 235.573L339.373 235.708ZM318.029 179.953C317.41 189.436 316.091 199.681 314.391 208.429C312.66 217.334 310.619 224.223 308.739 227.344L313.879 230.44C316.373 226.299 318.561 218.422 320.281 209.573C322.031 200.567 323.381 190.07 324.016 180.344L318.029 179.953ZM313.019 226.427C292.353 212.093 276.865 203.871 264.548 197.365L261.745 202.67C274 209.144 289.234 217.232 309.6 231.357L313.019 226.427ZM265.696 198.437C257.888 185.844 251.528 174.965 248.826 167.234L243.162 169.213C246.122 177.684 252.873 189.141 260.597 201.599L265.696 198.437ZM248.992 168.319C249.032 167.092 249.071 165.847 249.11 164.596L243.113 164.409C243.074 165.659 243.035 166.903 242.996 168.128L248.992 168.319ZM245.81 161.518C245.332 161.566 244.887 161.61 244.487 161.649L245.07 167.62C245.47 167.581 245.924 167.537 246.413 167.487L245.81 161.518ZM241.908 165.506C245.446 177.153 252.977 193.464 268.373 215.167L273.267 211.696C258.145 190.379 250.955 174.647 247.649 163.763L241.908 165.506ZM268.542 215.384C271.396 218.713 274.187 222.429 276.838 226.58L281.895 223.351C279.089 218.957 276.13 215.016 273.097 211.479L268.542 215.384ZM277.244 227.086L277.249 227.091L281.494 222.851L281.489 222.846L277.244 227.086ZM276.843 226.586C278.35 228.945 280.007 233.923 281.667 241.22C283.294 248.374 284.84 257.352 286.287 267.375L292.225 266.518C290.768 256.422 289.195 247.267 287.517 239.889C285.872 232.655 284.039 226.705 281.9 223.356L276.843 226.586ZM289.668 269.918C298.109 268.747 305.469 268.065 310.959 268.105C313.715 268.125 315.861 268.328 317.384 268.684C319.056 269.074 319.334 269.502 319.266 269.4L324.273 266.094C323.01 264.18 320.747 263.308 318.75 262.841C316.604 262.34 313.954 262.127 311.002 262.105C305.075 262.062 297.375 262.792 288.844 263.975L289.668 269.918ZM321.206 270.694L335.947 273.516L337.075 267.623L322.334 264.801L321.206 270.694ZM339.51 270.51C338.955 242.438 339.116 247.158 339.373 235.708L333.375 235.573C333.115 247.112 332.954 242.477 333.511 270.629L339.51 270.51ZM355.405 303.903L332.722 308.547L333.925 314.425L356.608 309.781L355.405 303.903ZM380.018 340.181C380.98 343.888 382.54 349.367 384.287 353.934C385.153 356.197 386.117 358.377 387.14 360.028C387.646 360.844 388.254 361.675 388.979 362.326C389.668 362.945 390.846 363.739 392.403 363.643L392.036 357.655C392.797 357.608 393.147 358.005 392.988 357.862C392.865 357.752 392.606 357.458 392.24 356.866C391.518 355.702 390.714 353.94 389.891 351.79C388.262 347.53 386.766 342.3 385.825 338.673L380.018 340.181ZM392.406 363.643C394.75 363.498 395.879 361.58 396.337 360.555C396.872 359.358 397.191 357.874 397.402 356.377C397.832 353.328 397.93 349.326 397.873 345.218C397.756 336.964 396.995 327.659 396.696 323.396L390.711 323.815C391.018 328.186 391.76 337.263 391.873 345.303C391.93 349.342 391.824 352.965 391.461 355.538C391.275 356.853 391.05 357.68 390.859 358.108C390.59 358.709 390.813 357.731 392.034 357.655L392.406 363.643ZM396.697 323.398C396.525 320.927 395.622 316.053 394.491 311.042C393.35 305.984 391.908 300.484 390.578 296.709L384.919 298.702C386.133 302.149 387.515 307.384 388.638 312.363C389.772 317.39 390.575 321.855 390.711 323.813L396.697 323.398ZM390.579 296.71C388.817 291.699 383.978 281.659 375.433 274.165C366.723 266.527 354.166 261.582 337.638 267.212L339.572 272.892C353.766 268.057 364.124 272.227 371.477 278.676C378.994 285.269 383.367 294.287 384.919 298.701L390.579 296.71ZM337.891 267.138L315.697 272.573L317.124 278.401L339.319 272.966L337.891 267.138ZM354.247 300.818C354.132 301.954 353.879 303.405 353.58 305.284C353.291 307.097 352.982 309.192 352.814 311.374C352.486 315.645 352.653 320.734 355.016 324.977L360.258 322.058C358.779 319.401 358.492 315.788 358.796 311.834C358.945 309.903 359.223 308.004 359.505 306.227C359.778 304.516 360.079 302.781 360.217 301.419L354.247 300.818ZM386.968 323.064C383.988 322.714 383.988 322.713 383.989 322.713C383.989 322.713 383.989 322.713 383.989 322.713C383.989 322.713 383.989 322.713 383.988 322.713C383.988 322.715 383.988 322.717 383.988 322.721C383.987 322.728 383.985 322.74 383.983 322.757C383.979 322.79 383.973 322.842 383.964 322.911C383.946 323.05 383.918 323.258 383.881 323.526C383.806 324.062 383.69 324.835 383.53 325.771C383.209 327.649 382.716 330.146 382.024 332.671C381.325 335.224 380.462 337.661 379.447 339.494C378.352 341.471 377.473 342.038 377.077 342.131L378.438 347.974C381.448 347.273 383.425 344.695 384.695 342.401C386.046 339.962 387.06 337.001 387.811 334.255C388.571 331.481 389.103 328.778 389.444 326.782C389.615 325.78 389.74 324.947 389.822 324.361C389.864 324.068 389.894 323.836 389.915 323.675C389.925 323.594 389.933 323.531 389.939 323.487C389.941 323.466 389.943 323.448 389.945 323.436C389.946 323.43 389.946 323.425 389.947 323.421C389.947 323.419 389.947 323.418 389.947 323.416C389.947 323.416 389.947 323.415 389.947 323.415C389.947 323.414 389.947 323.414 386.968 323.064ZM377.077 342.131C375.768 342.435 375.028 342.327 374.658 342.21C374.312 342.099 374.107 341.925 373.952 341.724C373.773 341.492 373.646 341.2 373.568 340.926C373.531 340.796 373.511 340.693 373.502 340.635C373.497 340.606 373.495 340.591 373.495 340.592C373.495 340.592 373.496 340.597 373.497 340.606C373.497 340.61 373.498 340.616 373.498 340.623C373.498 340.626 373.499 340.63 373.499 340.634C373.499 340.636 373.499 340.638 373.5 340.64C373.5 340.641 373.5 340.643 373.5 340.644C373.5 340.645 373.5 340.647 370.509 340.872C367.517 341.098 367.517 341.099 367.517 341.101C367.517 341.102 367.518 341.104 367.518 341.105C367.518 341.108 367.518 341.11 367.518 341.113C367.519 341.118 367.519 341.124 367.52 341.13C367.521 341.143 367.522 341.157 367.523 341.172C367.526 341.203 367.53 341.24 367.535 341.282C367.545 341.366 367.559 341.473 367.58 341.6C367.62 341.851 367.688 342.185 367.798 342.572C368.014 343.329 368.422 344.38 369.203 345.391C370.008 346.434 371.19 347.403 372.841 347.928C374.469 348.445 376.339 348.463 378.438 347.974L377.077 342.131ZM378.792 322.36C375.853 321.758 375.853 321.758 375.853 321.757C375.853 321.757 375.853 321.757 375.853 321.757C375.853 321.757 375.853 321.757 375.853 321.757C375.853 321.758 375.852 321.76 375.852 321.763C375.851 321.769 375.849 321.779 375.846 321.793C375.84 321.821 375.83 321.866 375.817 321.926C375.791 322.045 375.751 322.226 375.697 322.459C375.589 322.925 375.426 323.6 375.209 324.415C374.773 326.053 374.128 328.225 373.286 330.408C372.434 332.617 371.433 334.699 370.329 336.24C369.163 337.865 368.254 338.374 367.734 338.455L368.656 344.384C371.591 343.927 373.735 341.786 375.204 339.736C376.735 337.603 377.951 334.987 378.884 332.566C379.828 330.118 380.536 327.727 381.007 325.959C381.243 325.072 381.422 324.333 381.543 323.811C381.603 323.551 381.649 323.344 381.68 323.2C381.696 323.127 381.708 323.071 381.716 323.031C381.721 323.011 381.724 322.995 381.726 322.984C381.728 322.978 381.728 322.974 381.729 322.97C381.73 322.968 381.73 322.967 381.73 322.965C381.73 322.965 381.73 322.964 381.73 322.964C381.731 322.963 381.731 322.963 378.792 322.36ZM367.734 338.455C366.407 338.661 365.678 338.498 365.317 338.354C364.98 338.218 364.789 338.028 364.649 337.816C364.487 337.572 364.383 337.272 364.325 336.992C364.298 336.86 364.286 336.756 364.281 336.697C364.278 336.668 364.277 336.653 364.277 336.654C364.277 336.654 364.278 336.659 364.278 336.668C364.278 336.673 364.278 336.678 364.278 336.685C364.278 336.689 364.278 336.692 364.278 336.696C364.278 336.698 364.278 336.7 364.278 336.703C364.278 336.704 364.278 336.705 364.278 336.706C364.278 336.708 364.278 336.709 361.278 336.712C358.278 336.715 358.278 336.716 358.278 336.718C358.278 336.719 358.278 336.721 358.278 336.722C358.278 336.724 358.278 336.727 358.278 336.73C358.278 336.735 358.278 336.741 358.278 336.747C358.279 336.76 358.279 336.774 358.279 336.789C358.28 336.82 358.281 336.857 358.282 336.899C358.286 336.984 358.292 337.092 358.303 337.22C358.325 337.473 358.368 337.812 358.449 338.205C358.608 338.976 358.937 340.054 359.641 341.121C360.366 342.22 361.472 343.274 363.079 343.92C364.664 344.558 366.527 344.715 368.656 344.384L367.734 338.455ZM368.703 321.252C365.774 320.603 365.774 320.602 365.774 320.602C365.774 320.602 365.774 320.601 365.774 320.601C365.774 320.601 365.774 320.601 365.774 320.602C365.774 320.603 365.773 320.605 365.772 320.608C365.771 320.615 365.768 320.627 365.764 320.644C365.756 320.678 365.744 320.731 365.728 320.801C365.694 320.943 365.643 321.154 365.575 321.424C365.437 321.964 365.232 322.732 364.962 323.631C364.417 325.45 363.635 327.711 362.663 329.683C361.62 331.8 360.634 332.996 359.946 333.388C359.722 333.516 359.664 333.485 359.641 333.48C359.55 333.46 359.138 333.329 358.438 332.583L354.063 336.69C355.281 337.987 356.697 338.971 358.336 339.337C360.043 339.717 361.618 339.343 362.921 338.599C365.287 337.249 366.935 334.588 368.045 332.336C369.226 329.94 370.119 327.322 370.71 325.355C371.008 324.36 371.236 323.508 371.39 322.901C371.467 322.597 371.526 322.353 371.566 322.182C371.587 322.097 371.602 322.03 371.613 321.983C371.618 321.959 371.623 321.94 371.626 321.926C371.627 321.92 371.629 321.914 371.63 321.91C371.63 321.908 371.63 321.906 371.631 321.904C371.631 321.904 371.631 321.903 371.631 321.902C371.631 321.902 371.631 321.901 368.703 321.252ZM358.438 332.583C354.804 328.712 353.341 325.963 352.755 324.367C352.463 323.572 352.386 323.057 352.366 322.819C352.355 322.699 352.359 322.645 352.359 322.654C352.358 322.659 352.357 322.679 352.353 322.714C352.351 322.732 352.348 322.754 352.344 322.779C352.342 322.792 352.339 322.805 352.337 322.82C352.335 322.827 352.334 322.835 352.333 322.842C352.332 322.846 352.331 322.85 352.33 322.854C352.33 322.856 352.329 322.859 352.329 322.86C352.329 322.863 352.328 322.866 349.383 322.297C346.437 321.727 346.437 321.73 346.436 321.734C346.436 321.735 346.435 321.738 346.435 321.74C346.434 321.744 346.433 321.748 346.432 321.753C346.431 321.762 346.429 321.771 346.428 321.78C346.424 321.799 346.421 321.818 346.418 321.839C346.411 321.881 346.404 321.927 346.398 321.977C346.386 322.077 346.375 322.195 346.367 322.329C346.353 322.599 346.354 322.933 346.388 323.331C346.456 324.13 346.657 325.168 347.123 326.436C348.052 328.966 350.024 332.386 354.063 336.69L358.438 332.583ZM349.383 322.297C351.928 323.885 351.927 323.886 351.926 323.888C351.925 323.889 351.924 323.89 351.924 323.892C351.922 323.894 351.921 323.896 351.92 323.898C351.917 323.902 351.915 323.906 351.912 323.909C351.908 323.917 351.904 323.922 351.901 323.927C351.895 323.937 351.891 323.942 351.89 323.943C351.888 323.946 351.896 323.934 351.913 323.913C351.949 323.867 352.011 323.794 352.094 323.717C352.28 323.545 352.423 323.484 352.499 323.47C352.527 323.465 352.582 323.458 352.687 323.482C352.798 323.508 353.017 323.58 353.345 323.796C354.031 324.247 355.095 325.262 356.445 327.422L361.533 324.242C358.398 319.226 354.993 316.927 351.439 317.565C349.852 317.85 348.703 318.678 348.011 319.321C347.655 319.652 347.382 319.968 347.193 320.209C347.097 320.331 347.02 320.437 346.961 320.522C346.932 320.565 346.907 320.602 346.886 320.633C346.876 320.649 346.866 320.663 346.858 320.676C346.854 320.682 346.851 320.688 346.847 320.694C346.845 320.696 346.844 320.699 346.842 320.702C346.841 320.703 346.84 320.705 346.84 320.705C346.838 320.707 346.837 320.709 349.383 322.297ZM334.116 320.656C326.216 314.242 320.667 302.656 318.033 291.441C316.728 285.883 316.183 280.593 316.375 276.314C316.576 271.844 317.551 269.149 318.59 268.05L314.23 263.928C311.623 266.687 310.595 271.294 310.381 276.045C310.159 280.987 310.789 286.838 312.192 292.813C314.975 304.664 320.979 317.719 330.334 325.314L334.116 320.656ZM319.389 266.344C319.349 266.684 319.126 267.398 318.38 267.879C318.068 268.08 317.779 268.16 317.593 268.192C317.412 268.223 317.295 268.214 317.273 268.213C317.248 268.211 317.359 268.22 317.665 268.319C317.952 268.411 318.304 268.546 318.739 268.727C319.445 269.021 320.785 269.626 321.744 270.009C322.792 270.428 324.094 270.89 325.369 271.032L326.03 265.068C325.608 265.021 324.938 264.825 323.972 264.438C322.916 264.016 322.202 263.669 321.046 263.188C320.166 262.822 318.909 262.323 317.743 262.231C317.14 262.184 316.111 262.202 315.129 262.835C314.007 263.559 313.545 264.68 313.431 265.634L319.389 266.344ZM325.367 271.031C329.458 271.487 332.394 271.778 334.312 271.954C335.272 272.042 335.977 272.102 336.445 272.14C336.68 272.159 336.855 272.173 336.973 272.181C337.032 272.186 337.076 272.189 337.107 272.191C337.122 272.193 337.134 272.193 337.143 272.194C337.147 272.194 337.15 272.195 337.153 272.195C337.154 272.195 337.155 272.195 337.156 272.195C337.156 272.195 337.157 272.195 337.157 272.195C337.157 272.195 337.157 272.195 337.157 272.195C337.157 272.195 337.158 272.195 337.365 269.202C337.573 266.209 337.573 266.209 337.573 266.209C337.573 266.209 337.573 266.209 337.573 266.209C337.573 266.209 337.573 266.209 337.573 266.209C337.573 266.209 337.573 266.209 337.572 266.209C337.572 266.209 337.57 266.209 337.567 266.209C337.562 266.209 337.553 266.208 337.54 266.207C337.515 266.205 337.477 266.202 337.423 266.198C337.317 266.19 337.154 266.178 336.93 266.16C336.484 266.124 335.801 266.066 334.862 265.979C332.984 265.807 330.087 265.52 326.032 265.068L325.367 271.031ZM334.512 268.275C330.839 279.581 334.958 292.807 338.771 301.604L344.276 299.217C340.524 290.562 337.282 279.167 340.218 270.129L334.512 268.275ZM338.757 301.571C341.017 306.958 343.381 311.186 344.566 313.186L349.728 310.127C348.639 308.289 346.414 304.313 344.29 299.25L338.757 301.571ZM345.797 308.977C345.21 309.273 342.64 310.539 336.436 313.266L338.85 318.759C345.113 316.006 347.786 314.694 348.497 314.335L345.797 308.977ZM336.438 313.265C331.513 315.425 330.39 319.429 329.43 321.897L335.021 324.074C336.159 321.15 336.559 319.764 338.848 318.759L336.438 313.265ZM196.656 272.866C200.208 271.689 206.816 270.286 213.151 270.855C219.465 271.423 224.842 273.843 227.353 279.643L232.859 277.259C229.112 268.605 221.102 265.546 213.689 264.879C206.297 264.215 198.838 265.822 194.769 267.17L196.656 272.866ZM195.713 286.557C196.459 289.463 196.46 289.463 196.461 289.462C196.461 289.462 196.463 289.462 196.464 289.461C196.468 289.461 196.473 289.459 196.48 289.457C196.494 289.454 196.515 289.448 196.543 289.441C196.599 289.427 196.683 289.405 196.794 289.377C197.017 289.32 197.348 289.236 197.781 289.126C198.646 288.907 199.917 288.587 201.539 288.184C204.783 287.377 209.428 286.236 215.026 284.903C226.226 282.237 241.227 278.806 256.459 275.738C271.709 272.667 287.11 269.976 299.135 268.772C305.164 268.169 310.219 267.952 313.936 268.214C315.801 268.345 317.198 268.589 318.163 268.9C319.195 269.233 319.33 269.512 319.255 269.398L324.265 266.096C323.233 264.531 321.547 263.687 320.003 263.189C318.393 262.67 316.462 262.377 314.357 262.229C310.134 261.932 304.684 262.187 298.537 262.802C286.211 264.036 270.578 266.774 255.274 269.857C239.95 272.943 224.875 276.391 213.637 279.067C208.016 280.405 203.351 281.55 200.091 282.361C198.46 282.767 197.181 283.089 196.308 283.31C195.872 283.42 195.537 283.506 195.311 283.563C195.198 283.592 195.112 283.614 195.055 283.629C195.026 283.636 195.004 283.642 194.989 283.646C194.982 283.647 194.976 283.649 194.972 283.65C194.97 283.65 194.969 283.651 194.968 283.651C194.967 283.651 194.966 283.651 195.713 286.557ZM319.021 268.971L336.999 309.184L342.476 306.735L324.499 266.523L319.021 268.971ZM339.737 307.96C337.11 306.511 337.11 306.511 337.11 306.511C337.11 306.512 337.11 306.512 337.11 306.512C337.109 306.513 337.109 306.514 337.108 306.515C337.107 306.517 337.106 306.52 337.104 306.523C337.1 306.53 337.094 306.541 337.087 306.554C337.072 306.581 337.051 306.62 337.023 306.67C336.968 306.771 336.888 306.918 336.787 307.106C336.584 307.482 336.296 308.022 335.948 308.686C335.254 310.014 334.319 311.845 333.361 313.854C332.406 315.858 331.413 318.071 330.611 320.156C329.832 322.182 329.146 324.307 328.939 326.061L334.897 326.766C335.012 325.797 335.464 324.254 336.212 322.309C336.936 320.424 337.858 318.365 338.777 316.435C339.694 314.512 340.593 312.751 341.264 311.469C341.599 310.828 341.876 310.31 342.069 309.953C342.165 309.774 342.24 309.637 342.29 309.544C342.315 309.498 342.334 309.463 342.347 309.44C342.353 309.429 342.358 309.421 342.361 309.415C342.362 309.413 342.363 309.411 342.364 309.41C342.364 309.409 342.364 309.409 342.364 309.409C342.364 309.409 342.364 309.409 342.364 309.409C342.364 309.409 342.364 309.409 339.737 307.96ZM328.939 326.061C328.648 328.517 328.296 329.679 326.972 331.059C325.38 332.719 322.32 334.726 315.931 338.014L318.676 343.349C325.003 340.094 328.928 337.689 331.303 335.212C333.946 332.455 334.543 329.754 334.897 326.766L328.939 326.061ZM315.931 338.014C309.425 341.361 289.821 352.447 265.723 363.723C241.61 375.006 213.41 386.273 190.033 389.953L190.966 395.88C215.225 392.061 244.067 380.481 268.266 369.158C292.481 357.827 312.462 346.546 318.676 343.349L315.931 338.014ZM243.879 140.918C243.621 148.537 243.279 158.854 242.991 168.131L248.988 168.317C249.276 159.048 249.617 148.737 249.876 141.121L243.879 140.918ZM243.158 169.215C246.123 177.685 252.867 189.14 260.592 201.599L265.691 198.437C257.884 185.845 251.528 174.965 248.821 167.232L243.158 169.215ZM261.74 202.67C273.995 209.149 289.23 217.237 309.595 231.357L313.014 226.427C292.348 212.098 276.86 203.876 264.544 197.366L261.74 202.67ZM313.874 230.44C316.368 226.299 318.556 218.422 320.276 209.573C322.026 200.567 323.376 190.071 324.012 180.344L318.024 179.953C317.405 189.436 316.086 199.681 314.386 208.429C312.655 217.334 310.614 224.224 308.735 227.344L313.874 230.44ZM240.364 102.267C238.383 102.444 233.391 103.129 229.207 105.985C227.06 107.451 225.064 109.531 223.861 112.435C222.656 115.343 222.347 118.834 223.171 122.95L229.054 121.772C228.419 118.598 228.735 116.346 229.404 114.731C230.075 113.112 231.202 111.888 232.59 110.941C235.475 108.971 239.2 108.394 240.896 108.244L240.364 102.267ZM223.171 122.95C223.841 126.295 225.154 128.944 227.021 130.928C228.889 132.913 231.157 134.066 233.469 134.669C237.971 135.843 242.825 134.977 246.154 134.057L244.555 128.274C241.543 129.107 237.936 129.633 234.982 128.863C233.566 128.494 232.357 127.842 231.39 126.816C230.423 125.788 229.544 124.221 229.055 121.772L223.171 122.95ZM334.522 78.3728C337.084 97.921 335.903 118.987 333.887 134.715L339.838 135.478C341.892 119.456 343.123 97.833 340.471 77.5933L334.522 78.3728ZM333.882 134.714C333.032 141.331 332.041 146.961 331.135 151.085L336.996 152.372C337.945 148.048 338.965 142.241 339.833 135.478L333.882 134.714ZM249.316 110.859C249.751 111.3 250.664 112.646 251.922 114.935C253.115 117.105 254.465 119.834 255.794 122.749C258.476 128.633 260.946 135.005 261.885 138.904L267.718 137.5C266.641 133.024 263.973 126.229 261.253 120.26C259.881 117.249 258.464 114.38 257.18 112.045C255.962 109.828 254.689 107.762 253.586 106.644L249.316 110.859ZM264.801 138.202C265.778 141.038 265.778 141.039 265.777 141.039C265.777 141.039 265.777 141.039 265.777 141.039C265.777 141.039 265.777 141.039 265.777 141.039C265.778 141.038 265.78 141.038 265.784 141.037C265.791 141.034 265.802 141.03 265.819 141.025C265.852 141.014 265.905 140.996 265.977 140.972C266.12 140.925 266.341 140.853 266.635 140.761C267.224 140.576 268.108 140.308 269.264 139.983C271.578 139.333 274.98 138.457 279.29 137.565C287.915 135.782 300.155 133.942 314.57 133.73L314.482 127.731C299.615 127.949 286.992 129.845 278.075 131.69C273.615 132.612 270.076 133.523 267.642 134.207C266.424 134.549 265.482 134.834 264.839 135.036C264.517 135.137 264.269 135.217 264.099 135.273C264.014 135.301 263.949 135.323 263.903 135.339C263.88 135.347 263.862 135.353 263.849 135.357C263.842 135.359 263.837 135.361 263.833 135.363C263.831 135.363 263.829 135.364 263.828 135.364C263.827 135.365 263.826 135.365 263.826 135.365C263.825 135.365 263.824 135.366 264.801 138.202ZM314.526 130.731C314.464 133.73 314.464 133.73 314.463 133.73C314.464 133.73 314.464 133.73 314.464 133.73C314.464 133.73 314.464 133.73 314.465 133.73C314.467 133.73 314.469 133.73 314.473 133.73C314.479 133.73 314.49 133.731 314.504 133.731C314.533 133.732 314.576 133.733 314.633 133.734C314.748 133.737 314.919 133.741 315.139 133.748C315.579 133.76 316.218 133.78 317.005 133.811C318.581 133.871 320.745 133.972 323.102 134.131C327.938 134.459 333.183 135.013 335.987 135.863L337.728 130.121C334.167 129.042 328.246 128.466 323.507 128.145C321.077 127.98 318.852 127.877 317.235 127.815C316.426 127.784 315.768 127.763 315.31 127.75C315.081 127.744 314.903 127.739 314.78 127.736C314.719 127.734 314.672 127.733 314.64 127.733C314.624 127.732 314.611 127.732 314.603 127.732C314.598 127.732 314.595 127.732 314.593 127.732C314.591 127.732 314.59 127.731 314.59 127.731C314.589 127.731 314.589 127.731 314.589 127.731C314.589 127.731 314.588 127.731 314.526 130.731ZM336.857 132.992C333.861 132.852 333.861 132.852 333.861 132.851C333.861 132.851 333.861 132.851 333.861 132.851C333.861 132.851 333.861 132.852 333.861 132.853C333.861 132.855 333.86 132.858 333.86 132.864C333.86 132.875 333.859 132.893 333.857 132.918C333.855 132.968 333.85 133.045 333.844 133.149C333.832 133.355 333.812 133.667 333.781 134.072C333.72 134.882 333.619 136.066 333.457 137.538C333.133 140.485 332.57 144.572 331.613 149.121C329.675 158.333 326.216 168.979 320.237 176.071L324.825 179.938C331.792 171.673 335.495 159.812 337.484 150.357C338.491 145.572 339.082 141.285 339.421 138.193C339.591 136.645 339.699 135.392 339.764 134.52C339.797 134.084 339.819 133.743 339.833 133.508C339.84 133.391 339.846 133.3 339.849 133.237C339.851 133.205 339.852 133.18 339.853 133.163C339.853 133.154 339.853 133.147 339.854 133.142C339.854 133.139 339.854 133.137 339.854 133.135C339.854 133.134 339.854 133.133 339.854 133.133C339.854 133.132 339.854 133.131 336.857 132.992ZM320.237 176.071C314.57 182.795 305.55 185.434 296.007 185.141C286.463 184.848 277.007 181.621 271.132 177.395L267.628 182.266C274.59 187.274 285.238 190.813 295.823 191.138C306.411 191.463 317.547 188.572 324.825 179.938L320.237 176.071ZM271.132 177.395C264.798 172.839 261.372 169.656 259.151 166.564C256.954 163.505 255.795 160.346 254.324 155.45L248.578 157.177C250.075 162.159 251.461 166.142 254.278 170.064C257.07 173.952 261.124 177.588 267.628 182.266L271.132 177.395ZM254.324 155.449C252.876 150.638 250.197 139.085 247.853 128.601C246.688 123.388 245.616 118.482 244.834 114.879C244.444 113.078 244.126 111.603 243.906 110.578C243.796 110.066 243.71 109.666 243.652 109.395C243.623 109.259 243.601 109.155 243.586 109.086C243.579 109.051 243.573 109.025 243.569 109.007C243.567 108.998 243.566 108.992 243.565 108.987C243.565 108.985 243.564 108.984 243.564 108.983C243.564 108.982 243.564 108.982 243.564 108.981C243.564 108.981 243.564 108.981 240.63 109.606C237.695 110.232 237.696 110.232 237.696 110.232C237.696 110.232 237.696 110.233 237.696 110.233C237.696 110.235 237.696 110.236 237.697 110.239C237.698 110.243 237.699 110.25 237.701 110.259C237.705 110.277 237.711 110.303 237.718 110.339C237.733 110.409 237.756 110.513 237.785 110.65C237.843 110.923 237.929 111.324 238.04 111.838C238.26 112.866 238.579 114.345 238.971 116.151C239.754 119.762 240.829 124.681 241.998 129.91C244.322 140.31 247.054 152.11 248.578 157.178L254.324 155.449ZM240.866 112.597L251.687 111.742L251.215 105.761L240.393 106.616L240.866 112.597ZM306.487 156.377C307.072 159.319 307.071 159.32 307.071 159.32C307.07 159.32 307.07 159.32 307.069 159.32C307.069 159.32 307.068 159.32 307.068 159.32C307.067 159.32 307.067 159.32 307.067 159.32C307.067 159.32 307.069 159.32 307.073 159.319C307.081 159.318 307.096 159.315 307.117 159.311C307.161 159.303 307.232 159.29 307.326 159.275C307.516 159.243 307.8 159.2 308.154 159.156C308.869 159.067 309.839 158.98 310.882 158.98C311.938 158.98 312.979 159.07 313.868 159.289C314.775 159.514 315.318 159.822 315.61 160.107L319.808 155.821C318.478 154.519 316.808 153.836 315.308 153.465C313.788 153.089 312.226 152.98 310.882 152.98C309.525 152.98 308.298 153.092 307.415 153.201C306.97 153.257 306.605 153.312 306.346 153.355C306.216 153.377 306.112 153.395 306.037 153.409C305.999 153.416 305.969 153.422 305.946 153.426C305.935 153.428 305.926 153.43 305.918 153.431C305.914 153.432 305.911 153.433 305.908 153.433C305.907 153.434 305.906 153.434 305.905 153.434C305.904 153.434 305.903 153.434 305.903 153.434C305.902 153.434 305.902 153.435 306.487 156.377ZM313.659 119.661L316.627 145.503L322.588 144.818L319.62 118.977L313.659 119.661ZM320.351 142.254L311.247 139.925L309.76 145.738L318.864 148.067L320.351 142.254ZM325.818 122.21C325.818 122.85 325.645 123.291 325.523 123.479C325.466 123.567 325.461 123.539 325.559 123.475C325.67 123.402 325.885 123.307 326.173 123.307V129.307C328.263 129.307 329.747 127.998 330.564 126.734C331.399 125.44 331.818 123.832 331.818 122.21H325.818ZM326.173 123.307C326.46 123.307 326.675 123.402 326.786 123.475C326.884 123.539 326.879 123.567 326.822 123.479C326.7 123.291 326.527 122.85 326.527 122.21H320.527C320.527 123.832 320.946 125.44 321.782 126.734C322.598 127.998 324.082 129.307 326.173 129.307V123.307ZM326.527 122.21C326.527 121.569 326.7 121.129 326.822 120.94C326.879 120.852 326.884 120.881 326.786 120.944C326.675 121.017 326.46 121.113 326.173 121.113V115.113C324.082 115.113 322.598 116.422 321.782 117.685C320.946 118.98 320.527 120.588 320.527 122.21H326.527ZM326.173 121.113C325.885 121.113 325.67 121.017 325.559 120.944C325.461 120.881 325.466 120.852 325.523 120.94C325.645 121.129 325.818 121.569 325.818 122.21H331.818C331.818 120.588 331.399 118.98 330.564 117.685C329.747 116.422 328.263 115.113 326.173 115.113V121.113ZM300.343 121.76C300.343 122.401 300.17 122.841 300.048 123.03C299.991 123.118 299.986 123.089 300.084 123.026C300.195 122.953 300.41 122.857 300.698 122.857V128.857C302.788 128.857 304.272 127.549 305.088 126.285C305.924 124.991 306.343 123.383 306.343 121.76H300.343ZM300.698 122.857C300.985 122.857 301.2 122.953 301.311 123.026C301.409 123.089 301.404 123.118 301.347 123.03C301.225 122.841 301.052 122.401 301.052 121.76H295.052C295.052 123.383 295.471 124.991 296.307 126.285C297.123 127.549 298.607 128.857 300.698 128.857V122.857ZM301.052 121.76C301.052 121.12 301.225 120.679 301.347 120.491C301.404 120.403 301.409 120.431 301.311 120.495C301.2 120.568 300.985 120.663 300.698 120.663V114.663C298.607 114.663 297.123 115.972 296.307 117.236C295.471 118.53 295.052 120.138 295.052 121.76H301.052ZM300.698 120.663C300.41 120.663 300.195 120.568 300.084 120.495C299.986 120.431 299.991 120.403 300.048 120.491C300.17 120.679 300.343 121.12 300.343 121.76H306.343C306.343 120.138 305.924 118.53 305.088 117.236C304.272 115.972 302.788 114.663 300.698 114.663V120.663ZM289.222 100.372C291.685 102.085 291.684 102.086 291.683 102.087C291.683 102.088 291.682 102.089 291.682 102.09C291.681 102.091 291.68 102.092 291.679 102.094C291.677 102.096 291.675 102.098 291.674 102.1C291.671 102.104 291.67 102.107 291.669 102.108C291.667 102.111 291.668 102.108 291.674 102.101C291.684 102.088 291.708 102.056 291.745 102.009C291.821 101.915 291.949 101.763 292.129 101.573C292.492 101.191 293.047 100.679 293.783 100.193C295.226 99.2404 297.36 98.3875 300.257 98.8221L301.148 92.8885C296.494 92.1903 292.887 93.5957 290.478 95.1848C289.288 95.9701 288.389 96.7989 287.779 97.4409C287.472 97.7634 287.235 98.0433 287.066 98.254C286.981 98.3596 286.913 98.4482 286.862 98.5167C286.837 98.5509 286.815 98.5802 286.798 98.6041C286.789 98.616 286.782 98.6266 286.775 98.6358C286.772 98.6404 286.769 98.6447 286.766 98.6486C286.765 98.6506 286.764 98.6524 286.763 98.6542C286.762 98.6551 286.761 98.6563 286.761 98.6568C286.76 98.658 286.759 98.6592 289.222 100.372ZM325.006 95.4256C325.759 98.3295 325.758 98.3298 325.757 98.3301C325.757 98.3301 325.756 98.3304 325.755 98.3306C325.754 98.3309 325.752 98.3313 325.751 98.3316C325.749 98.3321 325.747 98.3326 325.746 98.333C325.743 98.3337 325.741 98.334 325.742 98.334C325.742 98.3338 325.749 98.3321 325.762 98.3292C325.788 98.3232 325.837 98.3123 325.906 98.2986C326.046 98.271 326.263 98.2331 326.534 98.201C327.091 98.1352 327.801 98.1032 328.511 98.1975C329.866 98.3773 330.856 98.9026 331.314 100.4L337.051 98.6453C335.674 94.1411 332.075 92.6179 329.301 92.2496C327.946 92.0698 326.707 92.1388 325.83 92.2425C325.384 92.2953 325.013 92.3592 324.744 92.4123C324.609 92.439 324.499 92.4631 324.416 92.4822C324.374 92.4917 324.34 92.5 324.313 92.5066C324.299 92.51 324.287 92.513 324.277 92.5155C324.272 92.5167 324.268 92.5179 324.264 92.5189C324.262 92.5195 324.26 92.5199 324.258 92.5204C324.257 92.5206 324.256 92.521 324.255 92.5211C324.254 92.5214 324.253 92.5217 325.006 95.4256ZM357.163 72.8343C356.971 72.2661 357.08 70.9905 358.351 68.8191L353.173 65.7879C351.74 68.2359 350.395 71.5602 351.481 74.7619L357.163 72.8343ZM357.991 65.2956L357.635 64.9L353.177 68.9159L353.533 69.3114L357.991 65.2956ZM352.58 65.9001L350.926 70.5391L356.577 72.5549L358.232 67.9159L352.58 65.9001ZM353.751 71.547C352.564 68.7918 352.566 68.7912 352.567 68.7905C352.568 68.7903 352.569 68.7896 352.57 68.7892C352.572 68.7883 352.574 68.7875 352.576 68.7867C352.58 68.7851 352.583 68.7836 352.587 68.7823C352.593 68.7796 352.598 68.7774 352.603 68.7756C352.611 68.7721 352.616 68.7703 352.617 68.7699C352.619 68.7693 352.606 68.7743 352.58 68.7827C352.528 68.8 352.433 68.8288 352.308 68.8546C352.041 68.9098 351.742 68.931 351.472 68.8831C351.241 68.842 351.011 68.7502 350.77 68.5116C350.512 68.256 350.09 67.6781 349.763 66.4186L343.955 67.9247C344.485 69.9687 345.352 71.5894 346.547 72.7735C347.759 73.9747 349.146 74.5638 350.423 74.7907C351.662 75.0108 352.765 74.887 353.523 74.7302C353.91 74.6501 354.233 74.5561 354.471 74.4772C354.59 74.4375 354.69 74.401 354.768 74.3709C354.808 74.3558 354.842 74.3423 354.87 74.3307C354.884 74.3249 354.897 74.3196 354.908 74.3148C354.914 74.3124 354.92 74.3102 354.925 74.308C354.927 74.307 354.929 74.3059 354.932 74.3049C354.933 74.3044 354.935 74.3037 354.935 74.3035C354.937 74.3028 354.938 74.3021 353.751 71.547ZM349.762 66.4164C349.716 66.2398 349.687 65.8028 350.019 64.9732C350.348 64.1527 350.944 63.1723 351.802 62.0731L347.071 58.3825C346.02 59.7298 345.064 61.208 344.45 62.7412C343.839 64.2653 343.474 66.077 343.956 67.9269L349.762 66.4164ZM351.641 58.193L351.582 58.1295L347.173 62.1991L347.232 62.2626L351.641 58.193ZM348.698 57.2425C345.141 58.0703 339.95 59.1438 335.538 59.6618C333.31 59.9233 331.43 60.0243 330.105 59.9273C329.432 59.8781 329.07 59.7882 328.929 59.7356C328.744 59.6665 329.267 59.8002 329.581 60.5054L324.101 62.9484C324.733 64.3654 325.973 65.0363 326.829 65.3561C327.729 65.6924 328.73 65.8428 329.667 65.9113C331.563 66.05 333.889 65.8965 336.237 65.6209C340.977 65.0645 346.419 63.9333 350.058 63.0862L348.698 57.2425ZM329.58 60.5031C330.084 61.6311 329.318 62.296 329.711 61.7979C329.988 61.4468 330.594 60.8826 331.643 60.129C333.697 58.6541 336.774 56.9256 340.288 55.1478C347.282 51.6096 355.456 48.1458 359.372 46.432L356.966 40.9354C353.15 42.6056 344.765 46.1588 337.579 49.794C334.004 51.6029 330.587 53.5002 328.143 55.2555C326.944 56.1169 325.799 57.069 325.001 58.0809C324.318 58.9458 323.15 60.8206 324.102 62.9508L329.58 60.5031ZM359.371 46.4323C361.119 45.6677 365.334 44.3432 370.189 43.0489C374.997 41.7671 380.141 40.592 383.665 40.0798L382.802 34.1422C378.936 34.7042 373.53 35.9487 368.643 37.2514C363.804 38.5415 359.182 39.9661 356.967 40.9351L359.371 46.4323ZM383.663 40.0801C386.456 39.6764 391.692 39.3025 397.692 39.9008L398.287 33.9304C391.752 33.2787 386.025 33.6764 382.805 34.1418L383.663 40.0801ZM400.968 37.2742C401.571 32.2633 400.745 27.201 398.103 22.3302L392.829 25.1907C394.854 28.924 395.472 32.7295 395.011 36.557L400.968 37.2742ZM398.103 22.3292C396.8 19.9292 394.831 17.0102 392.598 14.3689C390.406 11.7754 387.748 9.19677 385.02 7.74985L382.209 13.0504C383.928 13.962 385.995 15.8515 388.016 18.2425C389.997 20.5856 391.731 23.1676 392.829 25.1916L398.103 22.3292ZM385.021 7.75008C361.988 -4.4716 344.441 -0.345066 332.685 7.16719C326.898 10.865 322.602 15.3204 319.757 18.8323C318.331 20.593 317.259 22.1306 316.537 23.2396C316.175 23.7945 315.901 24.2435 315.712 24.5609C315.618 24.7197 315.546 24.8457 315.494 24.9357C315.469 24.9808 315.449 25.0169 315.434 25.0436C315.426 25.057 315.42 25.068 315.416 25.0766C315.413 25.0809 315.411 25.0846 315.409 25.0877C315.409 25.0893 315.408 25.0912 315.407 25.092C315.406 25.0937 315.405 25.0953 318.04 26.5292C320.676 27.9631 320.675 27.9644 320.674 27.9655C320.674 27.9657 320.674 27.9666 320.673 27.967C320.673 27.9677 320.673 27.9678 320.673 27.9674C320.674 27.9665 320.676 27.9632 320.679 27.9577C320.685 27.9466 320.696 27.9263 320.713 27.8973C320.745 27.8393 320.799 27.7463 320.873 27.6214C321.021 27.3714 321.252 26.9942 321.564 26.5143C322.19 25.5537 323.142 24.1869 324.42 22.6086C326.984 19.4423 330.818 15.4807 335.916 12.2231C345.929 5.82443 361.169 1.88644 382.208 13.0502L385.021 7.75008ZM318.04 26.5292C320.858 25.4998 320.858 25.4983 320.857 25.4968C320.857 25.4962 320.856 25.4946 320.856 25.4934C320.855 25.4909 320.854 25.4883 320.853 25.4853C320.851 25.4794 320.848 25.4725 320.845 25.4645C320.839 25.4486 320.832 25.4286 320.823 25.4046C320.804 25.3567 320.779 25.2928 320.747 25.214C320.684 25.0564 320.592 24.8391 320.472 24.5703C320.231 24.0331 319.871 23.2878 319.376 22.4022C318.388 20.6353 316.847 18.2834 314.614 15.9086C310.113 11.1209 302.823 6.27908 291.843 5.95601L291.667 11.9534C300.768 12.2212 306.621 16.1666 310.243 20.0184C312.071 21.9634 313.336 23.8943 314.139 25.3303C314.539 26.0461 314.821 26.6323 314.998 27.0262C315.086 27.223 315.148 27.3711 315.185 27.4626C315.203 27.5084 315.215 27.5399 315.222 27.5562C315.225 27.5644 315.226 27.5688 315.227 27.5692C315.227 27.5694 315.226 27.5686 315.226 27.5669C315.225 27.566 315.225 27.5648 315.224 27.5634C315.224 27.5628 315.224 27.5615 315.224 27.5612C315.223 27.5599 315.223 27.5585 318.04 26.5292ZM291.843 5.95599C282.807 5.6925 274.002 9.21192 267.622 15.6115L271.87 19.848C277.087 14.6159 284.293 11.7384 291.668 11.9534L291.843 5.95599ZM267.622 15.6114C258.657 24.6007 257.093 34.3344 257.851 41.7964C258.226 45.4849 259.162 48.5966 260.003 50.7885C260.425 51.8878 260.827 52.7657 261.13 53.3806C261.282 53.6883 261.409 53.931 261.503 54.1036C261.549 54.19 261.588 54.2588 261.616 54.3096C261.631 54.335 261.643 54.3559 261.652 54.3722C261.657 54.3803 261.661 54.3873 261.664 54.3931C261.666 54.396 261.667 54.3987 261.669 54.401C261.669 54.4022 261.67 54.4037 261.671 54.4043C261.671 54.4057 261.672 54.4071 264.259 52.8884C266.847 51.3698 266.847 51.371 266.848 51.3722C266.848 51.3725 266.849 51.3736 266.849 51.3742C266.85 51.3754 266.85 51.3763 266.851 51.3769C266.852 51.3782 266.852 51.3784 266.851 51.3775C266.85 51.3757 266.847 51.3696 266.841 51.3591C266.829 51.3383 266.808 51.3003 266.778 51.2459C266.719 51.137 266.627 50.9625 266.512 50.7276C266.28 50.2571 265.954 49.5477 265.605 48.6392C264.905 46.8155 264.13 44.2295 263.821 41.1896C263.211 35.1949 264.39 27.3491 271.87 19.8481L267.622 15.6114ZM264.259 52.8884C265.627 50.2181 265.625 50.2174 265.624 50.2166C265.623 50.2164 265.622 50.2156 265.621 50.2151C265.619 50.214 265.616 50.2129 265.614 50.2117C265.609 50.2093 265.604 50.2067 265.599 50.2039C265.587 50.1982 265.574 50.1916 265.559 50.1842C265.529 50.1693 265.491 50.151 265.445 50.1297C265.354 50.0869 265.233 50.032 265.082 49.9682C264.782 49.8406 264.364 49.677 263.839 49.5043C262.791 49.1592 261.307 48.7747 259.47 48.5711C255.774 48.1616 250.699 48.4914 244.965 51.2674L247.579 56.6678C252.174 54.4435 256.093 54.2337 258.809 54.5346C260.177 54.6863 261.253 54.9696 261.963 55.2035C262.318 55.3202 262.579 55.4239 262.738 55.4912C262.817 55.5249 262.871 55.5493 262.897 55.5616C262.91 55.5677 262.916 55.5708 262.915 55.5705C262.915 55.5703 262.913 55.5693 262.909 55.5673C262.907 55.5664 262.905 55.5652 262.902 55.5638C262.901 55.563 262.899 55.5623 262.897 55.5614C262.897 55.561 262.895 55.5604 262.895 55.5602C262.894 55.5595 262.892 55.5588 264.259 52.8884ZM244.964 51.2677C231.289 57.8917 224.51 73.3234 228.018 87.9555L233.853 86.5567C230.966 74.5169 236.576 61.9974 247.58 56.6676L244.964 51.2677ZM228.018 87.9557C229.763 95.2287 232.237 102.279 234.262 107.487C235.277 110.097 236.185 112.259 236.841 113.772C237.169 114.529 237.434 115.124 237.618 115.533C237.711 115.737 237.783 115.895 237.832 116.003C237.857 116.057 237.876 116.098 237.89 116.127C237.896 116.141 237.902 116.153 237.905 116.161C237.907 116.165 237.909 116.168 237.91 116.17C237.91 116.171 237.911 116.172 237.911 116.173C237.911 116.173 237.911 116.174 237.911 116.174C237.912 116.174 237.912 116.175 240.63 114.904C243.347 113.634 243.348 113.634 243.348 113.635C243.348 113.635 243.348 113.635 243.348 113.635C243.348 113.635 243.347 113.634 243.347 113.634C243.347 113.633 243.346 113.631 243.345 113.629C243.342 113.624 243.339 113.615 243.333 113.604C243.323 113.581 243.306 113.545 243.284 113.497C243.24 113.401 243.173 113.255 243.087 113.064C242.914 112.681 242.661 112.113 242.346 111.386C241.716 109.932 240.838 107.841 239.854 105.313C237.883 100.243 235.511 93.469 233.853 86.5564L228.018 87.9557ZM240.17 117.869C261.429 121.162 275.114 112.307 282.56 101.735C286.233 96.5214 288.385 90.9023 289.219 86.1558C289.635 83.7882 289.74 81.5371 289.482 79.6025C289.239 77.7796 288.603 75.7157 287.035 74.3663L283.121 78.9139C283.03 78.8354 283.364 79.1144 283.535 80.3946C283.69 81.5629 283.651 83.1748 283.309 85.118C282.629 88.9932 280.82 93.7871 277.655 98.2802C271.427 107.123 259.934 114.859 241.089 111.94L240.17 117.869ZM283.293 79.0514C293.044 86.2688 309.923 90.6517 337.373 87.8873L336.772 81.9175C310.011 84.6125 294.898 80.1764 286.863 74.2287L283.293 79.0514ZM337.373 87.8873C344.039 87.2157 352.011 84.6404 359.932 80.8334L357.333 75.4255C349.79 79.0506 342.514 81.339 336.772 81.9175L337.373 87.8873ZM359.001 75.1522C358.784 75.1253 358.554 75.0497 358.297 74.8243C358.023 74.5825 357.571 74.0369 357.164 72.8353L351.481 74.7609C352.143 76.7138 353.097 78.2411 354.335 79.33C355.592 80.4352 356.983 80.9481 358.264 81.1067L359.001 75.1522ZM389.011 70.7367L395.39 96.4269L401.214 94.9809L394.834 69.2906L389.011 70.7367ZM399.153 98.5807L435.396 87.8622L433.694 82.1086L397.451 92.8271L399.153 98.5807ZM348.702 57.2424C345.146 58.0703 339.955 59.1438 335.542 59.6618C333.315 59.9233 331.435 60.0243 330.11 59.9273C329.437 59.8781 329.074 59.7881 328.934 59.7356C328.749 59.6665 329.272 59.8002 329.586 60.5054L324.106 62.9484C324.738 64.3654 325.978 65.0363 326.834 65.3561C327.734 65.6924 328.735 65.8428 329.672 65.9113C331.568 66.05 333.894 65.8965 336.242 65.6208C340.982 65.0645 346.424 63.9332 350.063 63.0862L348.702 57.2424ZM329.585 60.503C330.089 61.6311 329.323 62.296 329.716 61.7979C329.993 61.4468 330.598 60.8826 331.648 60.129C333.702 58.6541 336.779 56.9256 340.293 55.1478C347.286 51.6096 355.461 48.1458 359.376 46.432L356.971 40.9354C353.155 42.6056 344.769 46.1588 337.584 49.794C334.009 51.6029 330.592 53.5002 328.148 55.2555C326.948 56.1169 325.804 57.069 325.006 58.0809C324.323 58.9458 323.155 60.8205 324.107 62.9508L329.585 60.503ZM359.376 46.4323C361.124 45.6677 365.339 44.3432 370.194 43.0489C375.003 41.7672 380.148 40.5921 383.675 40.0798L382.812 34.1421C378.943 34.7042 373.536 35.9487 368.649 37.2513C363.809 38.5415 359.187 39.9661 356.971 40.9351L359.376 46.4323ZM383.674 40.08C388.228 39.4202 398.888 38.8886 408.863 42.2052C418.662 45.4636 427.61 52.3217 429.823 66.5819L435.752 65.6616C433.109 48.6306 422.104 40.2851 410.756 36.5117C399.583 32.7966 387.899 33.4052 382.813 34.142L383.674 40.08ZM429.89 66.8987L435.079 86.2506L440.874 84.6968L435.685 65.3448L429.89 66.8987ZM437.124 82.5975L402.653 92.8179L404.358 98.5704L438.829 88.3499L437.124 82.5975ZM400.023 62.5726C398.215 63.7652 393.566 66.166 388.356 68.2537C383.042 70.3832 377.803 71.9117 374.638 71.8294L374.482 77.8273C379.014 77.9452 385.291 75.9457 390.588 73.8232C395.989 71.6588 401.049 69.0838 403.327 67.5808L400.023 62.5726ZM361.688 49.2602C359.995 46.7835 359.995 46.7838 359.994 46.7842C359.994 46.7844 359.993 46.7848 359.993 46.7851C359.992 46.7858 359.991 46.7867 359.989 46.7877C359.986 46.7898 359.982 46.7926 359.977 46.7961C359.967 46.803 359.953 46.8126 359.935 46.8249C359.899 46.8496 359.849 46.8848 359.784 46.9303C359.654 47.0211 359.467 47.1528 359.232 47.3213C358.763 47.658 358.099 48.1431 357.311 48.7451C355.739 49.9446 353.644 51.6288 351.589 53.5432C349.556 55.4371 347.452 57.6576 345.952 59.936C344.542 62.0767 343.195 64.9746 343.96 67.9247L349.768 66.4186C349.676 66.0652 349.754 65.0724 350.963 63.2354C352.082 61.5359 353.791 59.6915 355.678 57.9334C357.544 56.1959 359.475 54.641 360.951 53.5144C361.686 52.9534 362.301 52.5037 362.73 52.1964C362.944 52.0429 363.111 51.9252 363.222 51.8473C363.278 51.8083 363.32 51.7793 363.346 51.7607C363.36 51.7514 363.37 51.7448 363.375 51.7408C363.378 51.7388 363.38 51.7374 363.381 51.7368C363.382 51.7365 363.382 51.7363 363.382 51.7363C363.382 51.7363 363.382 51.7365 363.382 51.7365C363.381 51.7366 363.381 51.7369 361.688 49.2602ZM343.96 67.9247C344.49 69.9686 345.357 71.5894 346.552 72.7735C347.764 73.9747 349.15 74.5638 350.428 74.7906C351.667 75.0107 352.77 74.8869 353.528 74.7302C353.915 74.65 354.238 74.556 354.475 74.4771C354.595 74.4375 354.695 74.4009 354.773 74.3708C354.813 74.3558 354.847 74.3422 354.875 74.3307C354.889 74.3249 354.902 74.3196 354.913 74.3148C354.919 74.3124 354.924 74.3101 354.929 74.308C354.932 74.3069 354.934 74.3059 354.937 74.3049C354.938 74.3044 354.94 74.3037 354.94 74.3034C354.942 74.3027 354.943 74.302 353.756 71.5469C352.569 68.7918 352.571 68.7911 352.572 68.7904C352.573 68.7902 352.574 68.7895 352.575 68.7891C352.577 68.7883 352.579 68.7874 352.581 68.7866C352.585 68.785 352.588 68.7836 352.592 68.7822C352.598 68.7795 352.603 68.7773 352.608 68.7755C352.616 68.772 352.621 68.7702 352.622 68.7699C352.623 68.7692 352.611 68.7742 352.585 68.7826C352.533 68.8 352.437 68.8287 352.312 68.8546C352.046 68.9098 351.747 68.9309 351.477 68.8831C351.246 68.842 351.016 68.7502 350.775 68.5116C350.517 68.2559 350.095 67.6781 349.768 66.4186L343.96 67.9247ZM365.989 56.0136C364.092 53.6895 364.091 53.6899 364.091 53.6903C364.09 53.6905 364.09 53.691 364.089 53.6914C364.088 53.6922 364.087 53.6931 364.086 53.6943C364.083 53.6965 364.079 53.6995 364.075 53.7031C364.066 53.7104 364.054 53.7205 364.038 53.7331C364.008 53.7585 363.964 53.7946 363.909 53.8409C363.798 53.9334 363.64 54.0669 363.442 54.2372C363.046 54.5777 362.487 55.0671 361.827 55.6735C360.512 56.881 358.764 58.5769 357.074 60.5026C355.403 62.4069 353.69 64.6472 352.534 66.9435C351.426 69.1473 350.535 71.9915 351.477 74.7631L357.158 72.833C357.001 72.372 357.021 71.3768 357.894 69.6399C358.722 67.9955 360.063 66.1938 361.584 64.4601C363.087 62.7479 364.669 61.2099 365.885 60.0931C366.49 59.5372 366.999 59.0918 367.352 58.788C367.529 58.6362 367.666 58.5202 367.758 58.4437C367.803 58.4055 367.838 58.3773 367.859 58.3594C367.87 58.3505 367.878 58.3442 367.882 58.3406C367.884 58.3387 367.886 58.3376 367.886 58.3371C367.887 58.3369 367.887 58.3368 367.887 58.3369C367.886 58.3369 367.886 58.3372 367.886 58.3372C367.886 58.3374 367.886 58.3377 365.989 56.0136ZM351.477 74.7631C352.156 76.7628 353.141 78.3156 354.42 79.4085C355.717 80.5173 357.144 81.0022 358.435 81.1335C359.688 81.261 360.778 81.0552 361.522 80.8423C361.903 80.7335 362.217 80.6157 362.448 80.5192C362.565 80.4707 362.662 80.4268 362.738 80.391C362.776 80.373 362.809 80.357 362.836 80.3433C362.85 80.3365 362.862 80.3302 362.873 80.3246C362.879 80.3218 362.884 80.3191 362.889 80.3166C362.891 80.3154 362.893 80.3141 362.896 80.313C362.897 80.3124 362.898 80.3116 362.899 80.3113C362.901 80.3104 362.902 80.3096 361.512 77.6509C360.123 74.9921 360.124 74.9913 360.126 74.9905C360.126 74.9903 360.128 74.9895 360.129 74.989C360.131 74.988 360.133 74.987 360.134 74.9861C360.138 74.9842 360.141 74.9825 360.145 74.9809C360.151 74.9777 360.156 74.9751 360.16 74.973C360.169 74.9689 360.173 74.9667 360.174 74.9663C360.175 74.9656 360.163 74.9715 360.138 74.9818C360.088 75.0029 359.995 75.0387 359.872 75.0738C359.61 75.1487 359.314 75.192 359.042 75.1644C358.809 75.1407 358.574 75.0665 358.317 74.8467C358.041 74.6111 357.577 74.0659 357.158 72.833L351.477 74.7631ZM371.514 64.232C369.579 61.9391 369.579 61.9396 369.578 61.9401C369.578 61.9403 369.577 61.9409 369.577 61.9414C369.576 61.9423 369.574 61.9435 369.573 61.9449C369.569 61.9476 369.565 61.9512 369.56 61.9557C369.549 61.9646 369.535 61.9768 369.517 61.9923C369.481 62.0232 369.43 62.0671 369.365 62.1233C369.236 62.2357 369.051 62.3972 368.823 62.6018C368.368 63.0104 367.734 63.5937 367.009 64.3026C365.575 65.7046 363.715 67.664 362.176 69.7745C360.733 71.7542 359.168 74.3976 359.07 77.0765C359.016 78.5537 359.409 80.102 360.523 81.4215C361.593 82.6876 363.098 83.472 364.779 83.9397L366.388 78.1594C365.436 77.8946 365.153 77.6042 365.107 77.5499C365.106 77.5491 365.057 77.5318 365.066 77.295C365.093 76.546 365.669 75.1681 367.024 73.3096C368.284 71.582 369.881 69.8864 371.204 68.5929C371.857 67.954 372.427 67.4295 372.831 67.0672C373.033 66.8863 373.192 66.7466 373.298 66.654C373.352 66.6078 373.392 66.5734 373.417 66.5516C373.43 66.5407 373.439 66.533 373.444 66.5285C373.447 66.5263 373.449 66.5248 373.449 66.5242C373.45 66.5239 373.45 66.5238 373.45 66.5239C373.45 66.524 373.449 66.5242 373.449 66.5242C373.449 66.5245 373.449 66.5249 371.514 64.232ZM364.778 83.9394C370.328 85.4865 374.185 85.6442 376.804 85.3004C378.117 85.1281 379.111 84.8306 379.839 84.5253C380.202 84.3731 380.494 84.2207 380.723 84.0844C380.837 84.0164 380.935 83.9526 381.018 83.8954C381.059 83.8668 381.097 83.8398 381.13 83.8148C381.147 83.8023 381.163 83.7902 381.178 83.7787C381.185 83.773 381.192 83.7673 381.199 83.7619C381.203 83.7591 381.206 83.7564 381.21 83.7537C381.211 83.7524 381.214 83.7504 381.215 83.7497C381.217 83.7478 381.22 83.7458 379.348 81.4011C377.477 79.0565 377.479 79.0545 377.482 79.0526C377.482 79.052 377.485 79.0501 377.486 79.0488C377.49 79.0463 377.493 79.0438 377.496 79.0414C377.502 79.0365 377.508 79.0318 377.514 79.0273C377.526 79.0182 377.537 79.0099 377.547 79.0021C377.568 78.9867 377.586 78.9739 377.601 78.9635C377.631 78.9426 377.649 78.9315 377.654 78.9284C377.665 78.9219 377.623 78.9484 377.517 78.9925C377.309 79.0799 376.836 79.2447 376.024 79.3514C374.392 79.5655 371.367 79.5473 366.389 78.1597L364.778 83.9394ZM379.348 81.4011C381.935 82.9201 381.936 82.9182 381.937 82.9164C381.938 82.9157 381.939 82.9138 381.94 82.9125C381.941 82.9099 381.943 82.9071 381.945 82.9043C381.948 82.8986 381.951 82.8926 381.955 82.8861C381.962 82.8731 381.971 82.8584 381.98 82.8422C381.998 82.8097 382.019 82.7707 382.043 82.7255C382.09 82.6352 382.148 82.519 382.21 82.3797C382.335 82.1039 382.486 81.722 382.612 81.2602C382.856 80.3635 383.055 78.9802 382.577 77.4621C381.507 74.0587 377.939 72.1489 372.179 71.7054L371.718 77.6877C374.189 77.878 375.536 78.3373 376.224 78.7191C376.552 78.9016 376.707 79.053 376.772 79.1302C376.834 79.2028 376.848 79.2452 376.854 79.2619C376.871 79.3155 376.886 79.4518 376.823 79.6817C376.795 79.7833 376.762 79.8664 376.74 79.9149C376.73 79.9378 376.724 79.9484 376.726 79.9446C376.727 79.9425 376.73 79.9366 376.736 79.9264C376.739 79.9213 376.742 79.915 376.746 79.9077C376.749 79.904 376.751 79.9001 376.753 79.8958C376.754 79.8937 376.756 79.8915 376.757 79.8893C376.758 79.8881 376.759 79.8864 376.759 79.8858C376.76 79.884 376.761 79.8822 379.348 81.4011ZM386.027 100.327C387.411 102.164 389.553 103.318 391.773 104.073C394.044 104.845 396.737 105.314 399.629 105.555C405.421 106.037 412.422 105.638 419.361 104.581C426.307 103.524 433.335 101.786 439.178 99.515C444.845 97.3125 450.026 94.3746 452.509 90.5567L447.479 87.2855C446.103 89.4006 442.524 91.7774 437.004 93.9225C431.66 95.9994 425.076 97.6421 418.458 98.6496C411.835 99.6581 405.323 100.008 400.127 99.5753C397.525 99.3586 395.355 98.9536 393.705 98.3924C392.003 97.8138 391.164 97.1752 390.818 96.7159L386.027 100.327ZM452.419 87.1545C451.297 85.6145 450.13 84.5434 448.903 83.813C447.672 83.08 446.537 82.786 445.676 82.6107C444.641 82.4002 444.524 82.4108 444.305 82.3215C444.289 82.3153 444.331 82.3318 444.38 82.3752C444.425 82.416 444.406 82.417 444.344 82.3037L439.077 85.1765C439.819 86.5378 440.843 87.3908 442.044 87.8792C442.953 88.2489 444.111 88.4151 444.48 88.4903C445.022 88.6007 445.421 88.7223 445.834 88.9684C446.251 89.2171 446.841 89.6884 447.569 90.6876L452.419 87.1545ZM444.344 82.3033C442.388 78.7176 441.025 76.144 440.154 74.4721C439.719 73.6361 439.406 73.0256 439.204 72.6268C439.103 72.4274 439.029 72.281 438.982 72.1857C438.958 72.1381 438.94 72.1032 438.929 72.081C438.924 72.0699 438.92 72.0619 438.918 72.057C438.916 72.0546 438.915 72.0529 438.915 72.0521C438.915 72.0516 438.915 72.0514 438.915 72.0513C438.915 72.0513 438.915 72.0513 438.915 72.0514C438.915 72.0515 438.915 72.0515 438.915 72.0516C438.915 72.0517 438.915 72.0518 436.224 73.378C433.533 74.7042 433.533 74.7044 433.533 74.7045C433.533 74.7046 433.533 74.7048 433.533 74.7049C433.534 74.7052 433.534 74.7055 433.534 74.7058C433.534 74.7066 433.535 74.7075 433.535 74.7086C433.536 74.7108 433.538 74.7138 433.54 74.7176C433.543 74.7251 433.549 74.7357 433.555 74.7495C433.569 74.7771 433.589 74.8171 433.616 74.87C433.668 74.9756 433.747 75.1322 433.853 75.3416C434.066 75.7602 434.388 76.3898 434.833 77.244C435.723 78.9524 437.104 81.5599 439.077 85.1768L444.344 82.3033ZM434.284 71.0896C427.038 77.2328 415.268 78.5515 405.842 78.3577L405.718 84.3565C415.3 84.5534 429.097 83.3523 438.164 75.6664L434.284 71.0896ZM405.806 78.3572C400.316 78.3099 395.802 77.7556 393.678 77.446L392.812 83.3833C395.11 83.7182 399.91 84.3066 405.754 84.357L405.806 78.3572ZM390.255 80.1739C390.19 80.9775 389.988 83.9532 389.821 90.7915L395.82 90.9377C395.985 84.1617 396.183 81.307 396.235 80.6554L390.255 80.1739ZM389.821 90.7902C389.759 93.2883 388.628 94.1793 386.352 96.3504L390.493 100.692C392.405 98.869 395.686 96.3125 395.819 90.939L389.821 90.7902ZM644.392 253.997H454.852V259.997H644.392V253.997ZM454.852 253.997C450.976 253.997 447.61 256.661 446.713 260.425L452.549 261.816C452.803 260.751 453.756 259.997 454.852 259.997V253.997ZM446.712 260.43L420.363 371.802L426.202 373.184L452.551 261.811L446.712 260.43ZM423.282 369.493H354.576V375.493H423.282V369.493ZM354.576 372.493C351.631 371.922 351.631 371.923 351.63 371.925C351.63 371.926 351.63 371.928 351.63 371.929C351.629 371.932 351.629 371.935 351.628 371.938C351.627 371.945 351.625 371.953 351.624 371.962C351.62 371.98 351.616 372.003 351.611 372.03C351.602 372.085 351.589 372.159 351.575 372.25C351.546 372.433 351.51 372.686 351.475 372.999C351.404 373.625 351.334 374.5 351.328 375.545C351.317 377.612 351.558 380.454 352.635 383.355C353.726 386.292 355.684 389.305 359.067 391.557C362.436 393.8 366.977 395.128 372.969 395.128V389.128C367.861 389.128 364.553 388.002 362.392 386.563C360.245 385.134 358.992 383.238 358.26 381.266C357.514 379.259 357.319 377.192 357.328 375.577C357.332 374.781 357.386 374.122 357.437 373.674C357.462 373.451 357.486 373.282 357.503 373.176C357.511 373.124 357.517 373.087 357.521 373.068C357.522 373.059 357.523 373.053 357.524 373.053C357.524 373.052 357.523 373.053 357.523 373.055C357.523 373.056 357.523 373.057 357.522 373.059C357.522 373.059 357.522 373.061 357.522 373.061C357.522 373.062 357.521 373.064 354.576 372.493ZM372.969 395.128H614.947V389.128H372.969V395.128ZM614.947 395.128C618.824 395.128 622.19 392.465 623.087 388.701L617.25 387.31C616.997 388.374 616.044 389.128 614.947 389.128V395.128ZM623.088 388.696L652.527 264.274L646.688 262.892L617.249 387.315L623.088 388.696ZM652.527 264.273C653.768 259.022 649.78 253.997 644.392 253.997V259.997C645.916 259.997 647.037 261.418 646.688 262.893L652.527 264.273ZM4 396H743V390H4V396Z" fill="#2E186A"/>
</svg>
